M48
METRIC,LZ,000.000
;FILE_FORMAT=3:3
;TYPE=PLATED
;Layer: PTH_Through
;EasyEDA v6.5.34, 2023-11-29 11:21:28
;a3ad62460b0849ac923c3d987a2ed673,bee4cb2541bd470ea98a159692ad20ec,10
;Gerber Generator version 0.2
;Holesize 1 = 0.889 mm
T01C0.889
;Holesize 2 = 0.900 mm
T02C0.900
;Holesize 3 = 1.000 mm
T03C1.000
;Holesize 4 = 1.301 mm
T04C1.301
%
G05
G90
T01
X046228Y058293
X046228Y055753
X035306Y064770
X037846Y064770
T02
X040767Y050419
X033147Y050419
X040767Y056261
X033147Y056261
X017272Y065786
X024892Y065786
T03
X019812Y061087
X019812Y058547
X019812Y056007
X019812Y053467
X027432Y053467
X027432Y058547
X027432Y061087
X027432Y056007
T04
X018705Y047117
X023713Y047117
X011049Y059146
X011049Y054138
M30
