G04 Layer: TopSilkscreenLayer*
G04 EasyEDA v6.5.34, 2023-11-29 11:21:28*
G04 a3ad62460b0849ac923c3d987a2ed673,bee4cb2541bd470ea98a159692ad20ec,10*
G04 Gerber Generator version 0.2*
G04 Scale: 100 percent, Rotated: No, Reflected: No *
G04 Dimensions in millimeters *
G04 leading zeros omitted , absolute positions ,4 integer and 5 decimal *
%FSLAX45Y45*%
%MOMM*%

%ADD10C,0.1524*%
%ADD11C,0.2540*%
%ADD12C,0.2032*%
%ADD13C,0.1500*%

%LPD*%
D10*
X2985515Y5753100D02*
G01*
X2907538Y5753100D01*
X2892043Y5748020D01*
X2881629Y5737605D01*
X2876550Y5721857D01*
X2876550Y5711444D01*
X2881629Y5695950D01*
X2892043Y5685536D01*
X2907538Y5680455D01*
X2985515Y5680455D01*
X2964688Y5646165D02*
G01*
X2970022Y5635752D01*
X2985515Y5620004D01*
X2876550Y5620004D01*
X4941315Y5892800D02*
G01*
X4832350Y5851144D01*
X4941315Y5809742D02*
G01*
X4832350Y5851144D01*
X4915408Y5697473D02*
G01*
X4925822Y5702554D01*
X4936236Y5712968D01*
X4941315Y5723381D01*
X4941315Y5744210D01*
X4936236Y5754623D01*
X4925822Y5765037D01*
X4915408Y5770118D01*
X4899659Y5775452D01*
X4873752Y5775452D01*
X4858258Y5770118D01*
X4847843Y5765037D01*
X4837429Y5754623D01*
X4832350Y5744210D01*
X4832350Y5723381D01*
X4837429Y5712968D01*
X4847843Y5702554D01*
X4858258Y5697473D01*
X4915408Y5585205D02*
G01*
X4925822Y5590539D01*
X4936236Y5600700D01*
X4941315Y5611113D01*
X4941315Y5631942D01*
X4936236Y5642355D01*
X4925822Y5652770D01*
X4915408Y5657850D01*
X4899659Y5663184D01*
X4873752Y5663184D01*
X4858258Y5657850D01*
X4847843Y5652770D01*
X4837429Y5642355D01*
X4832350Y5631942D01*
X4832350Y5611113D01*
X4837429Y5600700D01*
X4847843Y5590539D01*
X4858258Y5585205D01*
X3429000Y6833615D02*
G01*
X3470656Y6724650D01*
X3512058Y6833615D02*
G01*
X3470656Y6724650D01*
X3577590Y6833615D02*
G01*
X3567175Y6828536D01*
X3556761Y6818121D01*
X3551681Y6807708D01*
X3546347Y6791960D01*
X3546347Y6766052D01*
X3551681Y6750558D01*
X3556761Y6740144D01*
X3567175Y6729729D01*
X3577590Y6724650D01*
X3598418Y6724650D01*
X3608831Y6729729D01*
X3619245Y6740144D01*
X3624325Y6750558D01*
X3629659Y6766052D01*
X3629659Y6791960D01*
X3624325Y6807708D01*
X3619245Y6818121D01*
X3608831Y6828536D01*
X3598418Y6833615D01*
X3577590Y6833615D01*
X3663950Y6833615D02*
G01*
X3663950Y6755637D01*
X3669029Y6740144D01*
X3679443Y6729729D01*
X3694938Y6724650D01*
X3705352Y6724650D01*
X3721100Y6729729D01*
X3731259Y6740144D01*
X3736593Y6755637D01*
X3736593Y6833615D01*
X3807206Y6833615D02*
G01*
X3807206Y6724650D01*
X3770884Y6833615D02*
G01*
X3843527Y6833615D01*
X3695700Y4799584D02*
G01*
X3695700Y4908550D01*
X3695700Y4799584D02*
G01*
X3648963Y4799584D01*
X3633470Y4804663D01*
X3628136Y4809997D01*
X3623056Y4820412D01*
X3623056Y4830826D01*
X3628136Y4841239D01*
X3633470Y4846320D01*
X3648963Y4851400D01*
X3695700Y4851400D01*
X3659377Y4851400D02*
G01*
X3623056Y4908550D01*
X3588765Y4820412D02*
G01*
X3578352Y4815078D01*
X3562604Y4799584D01*
X3562604Y4908550D01*
X3695700Y5383784D02*
G01*
X3695700Y5492750D01*
X3695700Y5383784D02*
G01*
X3648963Y5383784D01*
X3633470Y5388863D01*
X3628136Y5394197D01*
X3623056Y5404612D01*
X3623056Y5415026D01*
X3628136Y5425439D01*
X3633470Y5430520D01*
X3648963Y5435600D01*
X3695700Y5435600D01*
X3659377Y5435600D02*
G01*
X3623056Y5492750D01*
X3583431Y5409692D02*
G01*
X3583431Y5404612D01*
X3578352Y5394197D01*
X3573018Y5388863D01*
X3562604Y5383784D01*
X3542029Y5383784D01*
X3531615Y5388863D01*
X3526281Y5394197D01*
X3521202Y5404612D01*
X3521202Y5415026D01*
X3526281Y5425439D01*
X3536695Y5440934D01*
X3588765Y5492750D01*
X3515868Y5492750D01*
X2108200Y6820915D02*
G01*
X2108200Y6711950D01*
X2108200Y6820915D02*
G01*
X2154936Y6820915D01*
X2170429Y6815836D01*
X2175763Y6810502D01*
X2180843Y6800087D01*
X2180843Y6789673D01*
X2175763Y6779260D01*
X2170429Y6774179D01*
X2154936Y6769100D01*
X2108200Y6769100D01*
X2144522Y6769100D02*
G01*
X2180843Y6711950D01*
X2293111Y6795008D02*
G01*
X2288031Y6805421D01*
X2277618Y6815836D01*
X2267204Y6820915D01*
X2246375Y6820915D01*
X2235961Y6815836D01*
X2225547Y6805421D01*
X2220468Y6795008D01*
X2215134Y6779260D01*
X2215134Y6753352D01*
X2220468Y6737858D01*
X2225547Y6727444D01*
X2235961Y6717029D01*
X2246375Y6711950D01*
X2267204Y6711950D01*
X2277618Y6717029D01*
X2288031Y6727444D01*
X2293111Y6737858D01*
X2293111Y6753352D01*
X2267204Y6753352D02*
G01*
X2293111Y6753352D01*
X2107438Y5333492D02*
G01*
X2164588Y5333492D01*
X2133345Y5291836D01*
X2149093Y5291836D01*
X2159254Y5286755D01*
X2164588Y5281676D01*
X2169668Y5265928D01*
X2169668Y5255513D01*
X2164588Y5240020D01*
X2154174Y5229605D01*
X2138679Y5224526D01*
X2122931Y5224526D01*
X2107438Y5229605D01*
X2102104Y5234686D01*
X2097024Y5245100D01*
X1726692Y5688076D02*
G01*
X1617726Y5646420D01*
X1726692Y5605018D02*
G01*
X1617726Y5646420D01*
X1726692Y5570728D02*
G01*
X1617726Y5570728D01*
X1617726Y5570728D02*
G01*
X1617726Y5508244D01*
X1700784Y5395976D02*
G01*
X1711197Y5401310D01*
X1721612Y5411723D01*
X1726692Y5422137D01*
X1726692Y5442965D01*
X1721612Y5453126D01*
X1711197Y5463539D01*
X1700784Y5468873D01*
X1685036Y5473954D01*
X1659128Y5473954D01*
X1643634Y5468873D01*
X1633220Y5463539D01*
X1622805Y5453126D01*
X1617726Y5442965D01*
X1617726Y5422137D01*
X1622805Y5411723D01*
X1633220Y5401310D01*
X1643634Y5395976D01*
D11*
X2692201Y5227698D02*
G01*
X2032198Y5227701D01*
X2692201Y6227701D02*
G01*
X2692201Y6197485D01*
X2692201Y6019914D02*
G01*
X2692201Y5943485D01*
X2692201Y5765914D02*
G01*
X2692201Y5696087D01*
X2692201Y5505312D02*
G01*
X2692201Y5442087D01*
X2692201Y5251312D02*
G01*
X2692201Y5227698D01*
X2032198Y6227698D02*
G01*
X2032198Y6197485D01*
X2032198Y6019914D02*
G01*
X2032198Y5943485D01*
X2032198Y5765914D02*
G01*
X2032198Y5689485D01*
X2032198Y5511914D02*
G01*
X2032198Y5435485D01*
X2032198Y5257914D02*
G01*
X2032198Y5227701D01*
X2032198Y6227701D02*
G01*
X2237198Y6227701D01*
X2692201Y6227701D02*
G01*
X2487201Y6227701D01*
D12*
X4749800Y5448300D02*
G01*
X4498340Y5448300D01*
X4498340Y5956300D01*
X4749800Y5956300D01*
X4749800Y5448300D01*
X3911600Y6604000D02*
G01*
X3911600Y6352539D01*
X3403600Y6352539D01*
X3403600Y6604000D01*
X3911600Y6604000D01*
D11*
X3949700Y5041900D02*
G01*
X3975100Y5041900D01*
X3441700Y5041900D02*
G01*
X3416300Y5041900D01*
X3949700Y5041900D02*
G01*
X3949700Y4965700D01*
X3949700Y5118100D02*
G01*
X3949700Y5041900D01*
X3441700Y5118100D02*
G01*
X3949700Y5118100D01*
X3441700Y5041900D02*
G01*
X3441700Y5118100D01*
X3441700Y4965700D02*
G01*
X3441700Y5041900D01*
X3949700Y4965700D02*
G01*
X3441700Y4965700D01*
X3949700Y5626100D02*
G01*
X3975100Y5626100D01*
X3441700Y5626100D02*
G01*
X3416300Y5626100D01*
X3949700Y5626100D02*
G01*
X3949700Y5549900D01*
X3949700Y5702300D02*
G01*
X3949700Y5626100D01*
X3441700Y5702300D02*
G01*
X3949700Y5702300D01*
X3441700Y5626100D02*
G01*
X3441700Y5702300D01*
X3441700Y5549900D02*
G01*
X3441700Y5626100D01*
X3949700Y5549900D02*
G01*
X3441700Y5549900D01*
X1854200Y6578600D02*
G01*
X1828800Y6578600D01*
X2362200Y6578600D02*
G01*
X2387600Y6578600D01*
X1854200Y6578600D02*
G01*
X1854200Y6654800D01*
X1854200Y6502400D02*
G01*
X1854200Y6578600D01*
X2362200Y6502400D02*
G01*
X1854200Y6502400D01*
X2362200Y6578600D02*
G01*
X2362200Y6502400D01*
X2362200Y6654800D02*
G01*
X2362200Y6578600D01*
X1854200Y6654800D02*
G01*
X2362200Y6654800D01*
X1620901Y4489907D02*
G01*
X2620899Y4489907D01*
X1620367Y5104333D02*
G01*
X1580895Y5121699D01*
X1580895Y5021699D01*
X1620367Y5041392D01*
X1620901Y5171699D02*
G01*
X2620899Y5171699D01*
X1620901Y5171699D02*
G01*
X1620901Y4411700D01*
X2620899Y5171699D02*
G01*
X2620899Y4411700D01*
X1620901Y4411700D02*
G01*
X2620899Y4411700D01*
X1620901Y4951780D02*
G01*
X2620899Y4951780D01*
X883107Y6164198D02*
G01*
X883107Y5164201D01*
X1497533Y6164732D02*
G01*
X1514899Y6204204D01*
X1414899Y6204204D01*
X1434592Y6164732D01*
X1564899Y6164198D02*
G01*
X1564899Y5164201D01*
X1564899Y6164198D02*
G01*
X804900Y6164198D01*
X1564899Y5164201D02*
G01*
X804900Y5164201D01*
X804900Y6164198D02*
G01*
X804900Y5164201D01*
X1344980Y6164198D02*
G01*
X1344980Y5164201D01*
D13*
G75*
G01*
X2146300Y6121400D02*
G03*
X2145175Y6121425I10J25400D01*
D11*
G75*
G01*
X2487201Y6227702D02*
G02*
X2237232Y6227826I-124984J622D01*
M02*
