G04 Layer: BottomLayer*
G04 EasyEDA v6.5.34, 2023-11-29 11:21:28*
G04 ccee1c66621a4ec499711ebfef85393d,bee4cb2541bd470ea98a159692ad20ec,10*
G04 Gerber Generator version 0.2*
G04 Scale: 100 percent, Rotated: No, Reflected: No *
G04 Dimensions in millimeters *
G04 leading zeros omitted , absolute positions ,4 integer and 5 decimal *
%FSLAX45Y45*%
%MOMM*%

%ADD10C,0.3050*%
%ADD11C,1.8796*%
%ADD12C,1.8000*%
%ADD13C,1.9050*%
%ADD14R,1.5748X1.5748*%
%ADD15C,1.5748*%
%ADD16C,2.0000*%
%ADD17C,0.0111*%

%LPD*%
G36*
X798068Y4407408D02*
G01*
X794156Y4408170D01*
X790905Y4410405D01*
X788670Y4413656D01*
X787908Y4417568D01*
X787908Y6847331D01*
X788670Y6851243D01*
X790905Y6854494D01*
X794156Y6856730D01*
X798068Y6857492D01*
X5018532Y6857492D01*
X5022443Y6856730D01*
X5025694Y6854494D01*
X5027930Y6851243D01*
X5028692Y6847331D01*
X5028692Y4417568D01*
X5027930Y4413656D01*
X5025694Y4410405D01*
X5022443Y4408170D01*
X5018532Y4407408D01*
G37*

%LPC*%
G36*
X2997200Y4469892D02*
G01*
X3012592Y4470857D01*
X3027730Y4473600D01*
X3042412Y4478172D01*
X3056432Y4484522D01*
X3069640Y4492498D01*
X3081731Y4501997D01*
X3092602Y4512868D01*
X3102102Y4524959D01*
X3110077Y4538167D01*
X3116427Y4552188D01*
X3120999Y4566869D01*
X3123742Y4582007D01*
X3124708Y4597400D01*
X3123742Y4612792D01*
X3120999Y4627930D01*
X3116427Y4642612D01*
X3110077Y4656632D01*
X3102102Y4669840D01*
X3092602Y4681931D01*
X3081731Y4692802D01*
X3069640Y4702302D01*
X3056432Y4710277D01*
X3042412Y4716627D01*
X3027730Y4721199D01*
X3012592Y4723942D01*
X2997200Y4724908D01*
X2981807Y4723942D01*
X2966669Y4721199D01*
X2951988Y4716627D01*
X2937967Y4710277D01*
X2924759Y4702302D01*
X2912668Y4692802D01*
X2901797Y4681931D01*
X2892298Y4669840D01*
X2884322Y4656632D01*
X2877972Y4642612D01*
X2873400Y4627930D01*
X2870657Y4612792D01*
X2869692Y4597400D01*
X2870657Y4582007D01*
X2873400Y4566869D01*
X2877972Y4552188D01*
X2884322Y4538167D01*
X2892298Y4524959D01*
X2901797Y4512868D01*
X2912668Y4501997D01*
X2924759Y4492498D01*
X2937967Y4484522D01*
X2951988Y4478172D01*
X2966669Y4473600D01*
X2981807Y4470857D01*
G37*
G36*
X1003300Y4469892D02*
G01*
X1018692Y4470857D01*
X1033830Y4473600D01*
X1048512Y4478172D01*
X1062532Y4484522D01*
X1075740Y4492498D01*
X1087831Y4501997D01*
X1098702Y4512868D01*
X1108202Y4524959D01*
X1116177Y4538167D01*
X1122527Y4552188D01*
X1127099Y4566869D01*
X1129842Y4582007D01*
X1130808Y4597400D01*
X1129842Y4612792D01*
X1127099Y4627930D01*
X1122527Y4642612D01*
X1116177Y4656632D01*
X1108202Y4669840D01*
X1098702Y4681931D01*
X1087831Y4692802D01*
X1075740Y4702302D01*
X1062532Y4710277D01*
X1048512Y4716627D01*
X1033830Y4721199D01*
X1018692Y4723942D01*
X1003300Y4724908D01*
X987907Y4723942D01*
X972769Y4721199D01*
X958087Y4716627D01*
X944067Y4710277D01*
X930859Y4702302D01*
X918768Y4692802D01*
X907897Y4681931D01*
X898398Y4669840D01*
X890422Y4656632D01*
X884072Y4642612D01*
X879500Y4627930D01*
X876757Y4612792D01*
X875792Y4597400D01*
X876757Y4582007D01*
X879500Y4566869D01*
X884072Y4552188D01*
X890422Y4538167D01*
X898398Y4524959D01*
X907897Y4512868D01*
X918768Y4501997D01*
X930859Y4492498D01*
X944067Y4484522D01*
X958087Y4478172D01*
X972769Y4473600D01*
X987907Y4470857D01*
G37*
G36*
X2371344Y4585817D02*
G01*
X2386533Y4586732D01*
X2401468Y4589475D01*
X2415997Y4593996D01*
X2429865Y4600244D01*
X2442870Y4608118D01*
X2454808Y4617466D01*
X2465578Y4628235D01*
X2474925Y4640173D01*
X2482799Y4653178D01*
X2489047Y4667046D01*
X2493568Y4681575D01*
X2496312Y4696510D01*
X2497226Y4711700D01*
X2496312Y4726889D01*
X2493568Y4741824D01*
X2492197Y4746244D01*
X2491740Y4750003D01*
X2492756Y4753660D01*
X2494991Y4756708D01*
X2498191Y4758740D01*
X2501900Y4759452D01*
X3631692Y4759452D01*
X3640226Y4760264D01*
X3647948Y4762601D01*
X3655060Y4766411D01*
X3661664Y4771847D01*
X3887571Y4997754D01*
X3890873Y4999990D01*
X3894734Y5000752D01*
X3957421Y5000752D01*
X3961180Y5000040D01*
X3964432Y4997958D01*
X3966667Y4994808D01*
X3971086Y4985207D01*
X3978859Y4972659D01*
X3988104Y4961128D01*
X3998722Y4950866D01*
X4010507Y4941976D01*
X4023258Y4934610D01*
X4036872Y4928870D01*
X4051046Y4924806D01*
X4065625Y4922520D01*
X4080408Y4922062D01*
X4095089Y4923434D01*
X4109516Y4926584D01*
X4123436Y4931511D01*
X4136644Y4938115D01*
X4148937Y4946243D01*
X4160164Y4955844D01*
X4170070Y4966766D01*
X4178604Y4978806D01*
X4185615Y4991811D01*
X4190949Y5005578D01*
X4194505Y5019852D01*
X4196334Y5034534D01*
X4196334Y5049266D01*
X4194505Y5063947D01*
X4190949Y5078222D01*
X4187799Y5086248D01*
X4187139Y5090058D01*
X4187951Y5093868D01*
X4190136Y5097119D01*
X4570171Y5477154D01*
X4573676Y5479440D01*
X4577791Y5480151D01*
X4595723Y5474258D01*
X4609134Y5471566D01*
X4622800Y5470652D01*
X4636465Y5471566D01*
X4649876Y5474258D01*
X4662830Y5478627D01*
X4675124Y5484672D01*
X4686503Y5492292D01*
X4696764Y5501335D01*
X4705807Y5511596D01*
X4713427Y5522976D01*
X4719472Y5535269D01*
X4723841Y5548223D01*
X4726533Y5561634D01*
X4727448Y5575300D01*
X4726533Y5588965D01*
X4723841Y5602376D01*
X4719472Y5615330D01*
X4713427Y5627624D01*
X4705807Y5639003D01*
X4696764Y5649264D01*
X4686503Y5658307D01*
X4675124Y5665927D01*
X4662830Y5671972D01*
X4649876Y5676341D01*
X4636465Y5679033D01*
X4622800Y5679948D01*
X4609134Y5679033D01*
X4595723Y5676341D01*
X4582769Y5671972D01*
X4570476Y5665927D01*
X4559096Y5658307D01*
X4548835Y5649264D01*
X4539792Y5639003D01*
X4532172Y5627624D01*
X4526127Y5615330D01*
X4521758Y5602376D01*
X4519066Y5588965D01*
X4518152Y5575300D01*
X4519066Y5561634D01*
X4521200Y5550966D01*
X4521301Y5547664D01*
X4520336Y5544515D01*
X4518406Y5541822D01*
X4131970Y5155387D01*
X4128871Y5153253D01*
X4125163Y5152440D01*
X4121404Y5152999D01*
X4109516Y5157216D01*
X4095089Y5160365D01*
X4080408Y5161686D01*
X4065625Y5161280D01*
X4051046Y5158994D01*
X4036872Y5154930D01*
X4023258Y5149189D01*
X4010507Y5141823D01*
X3998722Y5132933D01*
X3988104Y5122672D01*
X3978859Y5111140D01*
X3971086Y5098592D01*
X3966667Y5088991D01*
X3964432Y5085842D01*
X3961180Y5083759D01*
X3957421Y5083048D01*
X3874008Y5083048D01*
X3865473Y5082235D01*
X3857751Y5079898D01*
X3850640Y5076088D01*
X3844036Y5070652D01*
X3618128Y4844745D01*
X3614826Y4842510D01*
X3610965Y4841748D01*
X2460752Y4841748D01*
X2452217Y4840935D01*
X2444496Y4838598D01*
X2437384Y4834788D01*
X2430475Y4829098D01*
X2427173Y4827270D01*
X2423464Y4826812D01*
X2418486Y4828286D01*
X2415336Y4830521D01*
X2413254Y4833772D01*
X2412492Y4837531D01*
X2412492Y5777992D01*
X2413254Y5781852D01*
X2415489Y5785154D01*
X2418791Y5787390D01*
X2422652Y5788152D01*
X2643428Y5788152D01*
X2646578Y5787644D01*
X2649372Y5786221D01*
X2651658Y5783935D01*
X2653893Y5780836D01*
X2663850Y5770219D01*
X2675077Y5760923D01*
X2687370Y5753150D01*
X2700528Y5746953D01*
X2714396Y5742432D01*
X2725521Y5740349D01*
X2729280Y5738774D01*
X2732176Y5735878D01*
X2733649Y5732068D01*
X2733497Y5728004D01*
X2731770Y5724296D01*
X2728722Y5721553D01*
X2724861Y5720283D01*
X2720949Y5719775D01*
X2706471Y5716117D01*
X2692552Y5710732D01*
X2679446Y5703671D01*
X2667254Y5695086D01*
X2656230Y5685028D01*
X2646527Y5673699D01*
X2638298Y5661253D01*
X2631643Y5647893D01*
X2626664Y5633872D01*
X2623515Y5619292D01*
X2622143Y5604408D01*
X2622600Y5589524D01*
X2624886Y5574792D01*
X2628950Y5560415D01*
X2634742Y5546699D01*
X2642209Y5533796D01*
X2651201Y5521909D01*
X2661564Y5511190D01*
X2673197Y5501843D01*
X2685897Y5493969D01*
X2699461Y5487720D01*
X2713482Y5483301D01*
X2717241Y5481116D01*
X2719730Y5477560D01*
X2720543Y5473293D01*
X2719476Y5469077D01*
X2716733Y5465673D01*
X2712872Y5463743D01*
X2706471Y5462117D01*
X2692552Y5456732D01*
X2679446Y5449671D01*
X2667254Y5441086D01*
X2656230Y5431028D01*
X2646527Y5419699D01*
X2638298Y5407253D01*
X2631643Y5393893D01*
X2626664Y5379872D01*
X2623515Y5365292D01*
X2622143Y5350408D01*
X2622600Y5335524D01*
X2624886Y5320792D01*
X2628950Y5306415D01*
X2634742Y5292699D01*
X2642209Y5279796D01*
X2651201Y5267909D01*
X2661564Y5257190D01*
X2673197Y5247843D01*
X2685897Y5239969D01*
X2699461Y5233720D01*
X2713634Y5229199D01*
X2728315Y5226456D01*
X2743200Y5225542D01*
X2758084Y5226456D01*
X2772765Y5229199D01*
X2786938Y5233720D01*
X2800502Y5239969D01*
X2813202Y5247843D01*
X2824835Y5257190D01*
X2835198Y5267909D01*
X2844190Y5279796D01*
X2851658Y5292699D01*
X2857449Y5306415D01*
X2861513Y5320792D01*
X2863799Y5335524D01*
X2864256Y5350408D01*
X2862884Y5365292D01*
X2859735Y5379872D01*
X2855264Y5392420D01*
X2854706Y5396179D01*
X2855569Y5399836D01*
X2857703Y5402986D01*
X3036671Y5581954D01*
X3039973Y5584190D01*
X3043834Y5584952D01*
X3195421Y5584952D01*
X3199180Y5584240D01*
X3202432Y5582158D01*
X3204667Y5579008D01*
X3209086Y5569407D01*
X3216859Y5556859D01*
X3226104Y5545328D01*
X3236722Y5535066D01*
X3248507Y5526176D01*
X3261258Y5518810D01*
X3267354Y5516219D01*
X3270605Y5514035D01*
X3272790Y5510733D01*
X3273552Y5506872D01*
X3273552Y5161127D01*
X3272790Y5157266D01*
X3270605Y5153964D01*
X3267354Y5151780D01*
X3261258Y5149189D01*
X3248507Y5141823D01*
X3236722Y5132933D01*
X3226104Y5122672D01*
X3216859Y5111140D01*
X3209086Y5098592D01*
X3202940Y5085181D01*
X3198469Y5071160D01*
X3195726Y5056632D01*
X3194812Y5041900D01*
X3195726Y5027168D01*
X3198469Y5012639D01*
X3202940Y4998618D01*
X3209086Y4985207D01*
X3216859Y4972659D01*
X3226104Y4961128D01*
X3236722Y4950866D01*
X3248507Y4941976D01*
X3261258Y4934610D01*
X3274872Y4928870D01*
X3289046Y4924806D01*
X3303625Y4922520D01*
X3318408Y4922062D01*
X3333089Y4923434D01*
X3347516Y4926584D01*
X3361436Y4931511D01*
X3374644Y4938115D01*
X3386937Y4946243D01*
X3398164Y4955844D01*
X3408070Y4966766D01*
X3416604Y4978806D01*
X3423615Y4991811D01*
X3428949Y5005578D01*
X3432505Y5019852D01*
X3434334Y5034534D01*
X3434334Y5049266D01*
X3432505Y5063947D01*
X3428949Y5078222D01*
X3423615Y5091988D01*
X3416604Y5104993D01*
X3408070Y5117033D01*
X3398164Y5127955D01*
X3386937Y5137556D01*
X3374644Y5145684D01*
X3361486Y5152237D01*
X3358489Y5154523D01*
X3356559Y5157673D01*
X3355848Y5161330D01*
X3355848Y5506669D01*
X3356559Y5510326D01*
X3358489Y5513476D01*
X3361486Y5515762D01*
X3374644Y5522315D01*
X3386937Y5530443D01*
X3398164Y5540044D01*
X3408070Y5550966D01*
X3416604Y5563006D01*
X3423615Y5576011D01*
X3428949Y5589778D01*
X3432505Y5604052D01*
X3434334Y5618734D01*
X3434334Y5633466D01*
X3432505Y5648147D01*
X3428949Y5662422D01*
X3423615Y5676188D01*
X3416604Y5689193D01*
X3408070Y5701233D01*
X3398164Y5712155D01*
X3386937Y5721756D01*
X3374644Y5729884D01*
X3361436Y5736488D01*
X3347516Y5741416D01*
X3333089Y5744565D01*
X3318408Y5745886D01*
X3303625Y5745480D01*
X3289046Y5743194D01*
X3274872Y5739130D01*
X3261258Y5733389D01*
X3248507Y5726023D01*
X3236722Y5717133D01*
X3226104Y5706872D01*
X3216859Y5695340D01*
X3209086Y5682792D01*
X3204667Y5673191D01*
X3202432Y5670042D01*
X3199180Y5667959D01*
X3195421Y5667248D01*
X3023108Y5667248D01*
X3014573Y5666435D01*
X3006852Y5664098D01*
X2999740Y5660288D01*
X2993136Y5654852D01*
X2860649Y5522366D01*
X2857144Y5520080D01*
X2853080Y5519369D01*
X2849067Y5520385D01*
X2845765Y5522925D01*
X2843733Y5526532D01*
X2843377Y5530646D01*
X2844647Y5534609D01*
X2851658Y5546699D01*
X2857449Y5560415D01*
X2861513Y5574792D01*
X2863799Y5589524D01*
X2864256Y5604408D01*
X2862884Y5619292D01*
X2859735Y5633872D01*
X2855264Y5646420D01*
X2854706Y5650179D01*
X2855569Y5653836D01*
X2857703Y5656986D01*
X3559352Y6358636D01*
X3564788Y6365240D01*
X3567937Y6369812D01*
X3571087Y6371691D01*
X3574643Y6372352D01*
X3608781Y6372352D01*
X3615080Y6373063D01*
X3620566Y6374993D01*
X3625443Y6378041D01*
X3629558Y6382156D01*
X3632606Y6387033D01*
X3634536Y6392519D01*
X3635248Y6398818D01*
X3635248Y6555181D01*
X3634536Y6561480D01*
X3632606Y6566966D01*
X3629558Y6571843D01*
X3625443Y6575958D01*
X3620566Y6579006D01*
X3615080Y6580936D01*
X3608781Y6581648D01*
X3452418Y6581648D01*
X3446119Y6580936D01*
X3440633Y6579006D01*
X3435756Y6575958D01*
X3431641Y6571843D01*
X3428593Y6566966D01*
X3426663Y6561480D01*
X3425951Y6555181D01*
X3425951Y6398818D01*
X3426663Y6392519D01*
X3428593Y6387033D01*
X3431641Y6382156D01*
X3435756Y6378041D01*
X3441293Y6374587D01*
X3443986Y6372098D01*
X3445611Y6368897D01*
X3446018Y6365290D01*
X3445154Y6361785D01*
X3443071Y6358788D01*
X2799384Y5715101D01*
X2796184Y5712917D01*
X2792374Y5712104D01*
X2788513Y5712815D01*
X2779928Y5716117D01*
X2765450Y5719775D01*
X2761538Y5720283D01*
X2757678Y5721553D01*
X2754630Y5724296D01*
X2752902Y5728004D01*
X2752750Y5732068D01*
X2754223Y5735878D01*
X2757119Y5738774D01*
X2760878Y5740349D01*
X2772003Y5742432D01*
X2785872Y5746953D01*
X2799029Y5753150D01*
X2811322Y5760923D01*
X2822549Y5770219D01*
X2832506Y5780836D01*
X2841040Y5792622D01*
X2848051Y5805373D01*
X2853436Y5818886D01*
X2857042Y5833008D01*
X2858871Y5847435D01*
X2858871Y5861964D01*
X2857042Y5876391D01*
X2853436Y5890514D01*
X2848051Y5904026D01*
X2841040Y5916777D01*
X2832506Y5928563D01*
X2822549Y5939180D01*
X2811322Y5948476D01*
X2799029Y5956249D01*
X2785872Y5962446D01*
X2772003Y5966968D01*
X2757728Y5969660D01*
X2743200Y5970574D01*
X2728671Y5969660D01*
X2714396Y5966968D01*
X2700528Y5962446D01*
X2687370Y5956249D01*
X2675077Y5948476D01*
X2663850Y5939180D01*
X2653893Y5928563D01*
X2645359Y5916777D01*
X2638348Y5904026D01*
X2632964Y5890514D01*
X2629814Y5878068D01*
X2627782Y5874156D01*
X2624277Y5871413D01*
X2619959Y5870448D01*
X2371852Y5870448D01*
X2363317Y5869635D01*
X2355596Y5867298D01*
X2348484Y5863488D01*
X2342286Y5858357D01*
X2337155Y5852160D01*
X2333345Y5845048D01*
X2331008Y5837326D01*
X2330196Y5828792D01*
X2330196Y4837531D01*
X2329434Y4833772D01*
X2327351Y4830521D01*
X2324201Y4828286D01*
X2312822Y4823155D01*
X2299817Y4815281D01*
X2287879Y4805934D01*
X2277110Y4795164D01*
X2267762Y4783226D01*
X2259888Y4770221D01*
X2253640Y4756353D01*
X2249119Y4741824D01*
X2246376Y4726889D01*
X2245461Y4711700D01*
X2246376Y4696510D01*
X2249119Y4681575D01*
X2253640Y4667046D01*
X2259888Y4653178D01*
X2267762Y4640173D01*
X2277110Y4628235D01*
X2287879Y4617466D01*
X2299817Y4608118D01*
X2312822Y4600244D01*
X2326690Y4593996D01*
X2341219Y4589475D01*
X2356154Y4586732D01*
G37*
G36*
X1926793Y4599279D02*
G01*
X1928977Y4600244D01*
X1941982Y4608118D01*
X1953920Y4617466D01*
X1964689Y4628235D01*
X1974037Y4640173D01*
X1981911Y4653178D01*
X1982876Y4655362D01*
X1926793Y4655362D01*
G37*
G36*
X1814118Y4599279D02*
G01*
X1814118Y4655362D01*
X1758035Y4655362D01*
X1759000Y4653178D01*
X1766874Y4640173D01*
X1776222Y4628235D01*
X1786991Y4617466D01*
X1798929Y4608118D01*
X1811934Y4600244D01*
G37*
G36*
X1758035Y4768037D02*
G01*
X1814118Y4768037D01*
X1814118Y4824120D01*
X1811934Y4823155D01*
X1798929Y4815281D01*
X1786991Y4805934D01*
X1776222Y4795164D01*
X1766874Y4783226D01*
X1759000Y4770221D01*
G37*
G36*
X1926793Y4768037D02*
G01*
X1982876Y4768037D01*
X1981911Y4770221D01*
X1974037Y4783226D01*
X1964689Y4795164D01*
X1953920Y4805934D01*
X1941982Y4815281D01*
X1928977Y4823155D01*
X1926793Y4824120D01*
G37*
G36*
X1929841Y5243017D02*
G01*
X1929841Y5295341D01*
X1877466Y5295341D01*
X1883359Y5284622D01*
X1891893Y5272836D01*
X1901850Y5262219D01*
X1913077Y5252923D01*
X1925370Y5245150D01*
G37*
G36*
X2032558Y5243017D02*
G01*
X2037029Y5245150D01*
X2049322Y5252923D01*
X2060549Y5262219D01*
X2070506Y5272836D01*
X2079040Y5284622D01*
X2084933Y5295341D01*
X2032558Y5295341D01*
G37*
G36*
X1104900Y5287873D02*
G01*
X1120089Y5288788D01*
X1135024Y5291531D01*
X1149553Y5296052D01*
X1163421Y5302300D01*
X1176426Y5310174D01*
X1188364Y5319522D01*
X1199134Y5330291D01*
X1208481Y5342229D01*
X1216355Y5355234D01*
X1222603Y5369102D01*
X1227124Y5383631D01*
X1229868Y5398566D01*
X1230782Y5413756D01*
X1229868Y5428945D01*
X1229055Y5433263D01*
X1229258Y5437682D01*
X1231290Y5441594D01*
X1234744Y5444286D01*
X1239062Y5445252D01*
X1586992Y5445252D01*
X1595526Y5446064D01*
X1603248Y5448401D01*
X1610360Y5452211D01*
X1616964Y5457647D01*
X1715871Y5556554D01*
X1719173Y5558790D01*
X1723034Y5559552D01*
X1866188Y5559552D01*
X1870151Y5558739D01*
X1873453Y5556504D01*
X1875637Y5553100D01*
X1876348Y5551373D01*
X1883359Y5538622D01*
X1891893Y5526836D01*
X1901850Y5516219D01*
X1913077Y5506923D01*
X1925370Y5499150D01*
X1938528Y5492953D01*
X1952396Y5488432D01*
X1966671Y5485739D01*
X1981200Y5484825D01*
X1995728Y5485739D01*
X2010003Y5488432D01*
X2023872Y5492953D01*
X2037029Y5499150D01*
X2049322Y5506923D01*
X2060549Y5516219D01*
X2070506Y5526836D01*
X2079040Y5538622D01*
X2086051Y5551373D01*
X2091436Y5564886D01*
X2095042Y5579008D01*
X2096871Y5593435D01*
X2096871Y5607964D01*
X2095042Y5622391D01*
X2091436Y5636514D01*
X2086051Y5650026D01*
X2079040Y5662777D01*
X2070506Y5674563D01*
X2060549Y5685180D01*
X2049322Y5694476D01*
X2037029Y5702249D01*
X2023872Y5708446D01*
X2010003Y5712968D01*
X1995728Y5715660D01*
X1981200Y5716574D01*
X1966671Y5715660D01*
X1952396Y5712968D01*
X1938528Y5708446D01*
X1925370Y5702249D01*
X1913077Y5694476D01*
X1901850Y5685180D01*
X1891893Y5674563D01*
X1883359Y5662777D01*
X1876348Y5650026D01*
X1875637Y5648299D01*
X1873453Y5644896D01*
X1870151Y5642660D01*
X1866188Y5641848D01*
X1702307Y5641848D01*
X1693773Y5641035D01*
X1686052Y5638698D01*
X1678939Y5634888D01*
X1672336Y5629452D01*
X1573428Y5530545D01*
X1570126Y5528310D01*
X1566265Y5527548D01*
X1178052Y5527548D01*
X1169517Y5526735D01*
X1167536Y5526125D01*
X1163929Y5525719D01*
X1160424Y5526582D01*
X1149553Y5531459D01*
X1135024Y5535980D01*
X1120089Y5538724D01*
X1104900Y5539638D01*
X1089710Y5538724D01*
X1074775Y5535980D01*
X1060246Y5531459D01*
X1046378Y5525211D01*
X1033373Y5517337D01*
X1021435Y5507990D01*
X1010666Y5497220D01*
X1001318Y5485282D01*
X993444Y5472277D01*
X987196Y5458409D01*
X982675Y5443880D01*
X979932Y5428945D01*
X979017Y5413756D01*
X979932Y5398566D01*
X982675Y5383631D01*
X987196Y5369102D01*
X993444Y5355234D01*
X1001318Y5342229D01*
X1010666Y5330291D01*
X1021435Y5319522D01*
X1033373Y5310174D01*
X1046378Y5302300D01*
X1060246Y5296052D01*
X1074775Y5291531D01*
X1089710Y5288788D01*
G37*
G36*
X1877466Y5398058D02*
G01*
X1929841Y5398058D01*
X1929841Y5450382D01*
X1925370Y5448249D01*
X1913077Y5440476D01*
X1901850Y5431180D01*
X1891893Y5420563D01*
X1883359Y5408777D01*
G37*
G36*
X2032558Y5398058D02*
G01*
X2084933Y5398058D01*
X2079040Y5408777D01*
X2070506Y5420563D01*
X2060549Y5431180D01*
X2049322Y5440476D01*
X2037029Y5448249D01*
X2032558Y5450382D01*
G37*
G36*
X4023360Y5518759D02*
G01*
X4023360Y5572760D01*
X3969562Y5572760D01*
X3971086Y5569407D01*
X3978859Y5556859D01*
X3988104Y5545328D01*
X3998722Y5535066D01*
X4010507Y5526176D01*
G37*
G36*
X4130040Y5519013D02*
G01*
X4136644Y5522315D01*
X4148937Y5530443D01*
X4160164Y5540044D01*
X4170070Y5550966D01*
X4178604Y5563006D01*
X4183837Y5572760D01*
X4130040Y5572760D01*
G37*
G36*
X4130040Y5679440D02*
G01*
X4183837Y5679440D01*
X4178604Y5689193D01*
X4170070Y5701233D01*
X4160164Y5712155D01*
X4148937Y5721756D01*
X4136644Y5729884D01*
X4130040Y5733186D01*
G37*
G36*
X3969562Y5679440D02*
G01*
X4023360Y5679440D01*
X4023360Y5733440D01*
X4010507Y5726023D01*
X3998722Y5717133D01*
X3988104Y5706872D01*
X3978859Y5695340D01*
X3971086Y5682792D01*
G37*
G36*
X4544618Y5724652D02*
G01*
X4577080Y5724652D01*
X4577080Y5783580D01*
X4518152Y5783580D01*
X4518152Y5751118D01*
X4518863Y5744819D01*
X4520793Y5739333D01*
X4523841Y5734456D01*
X4527956Y5730341D01*
X4532833Y5727293D01*
X4538319Y5725363D01*
G37*
G36*
X4668520Y5724652D02*
G01*
X4700981Y5724652D01*
X4707280Y5725363D01*
X4712766Y5727293D01*
X4717643Y5730341D01*
X4721758Y5734456D01*
X4724806Y5739333D01*
X4726736Y5744819D01*
X4727448Y5751118D01*
X4727448Y5783580D01*
X4668520Y5783580D01*
G37*
G36*
X1981200Y5738825D02*
G01*
X1995728Y5739739D01*
X2010003Y5742432D01*
X2023872Y5746953D01*
X2037029Y5753150D01*
X2049322Y5760923D01*
X2060549Y5770219D01*
X2070506Y5780836D01*
X2079040Y5792622D01*
X2086051Y5805373D01*
X2091436Y5818886D01*
X2095042Y5833008D01*
X2096871Y5847435D01*
X2096871Y5861964D01*
X2095042Y5876391D01*
X2091436Y5890514D01*
X2086051Y5904026D01*
X2079040Y5916777D01*
X2070506Y5928563D01*
X2060549Y5939180D01*
X2049322Y5948476D01*
X2037029Y5956249D01*
X2023872Y5962446D01*
X2010003Y5966968D01*
X1995728Y5969660D01*
X1981200Y5970574D01*
X1966671Y5969660D01*
X1952396Y5966968D01*
X1938528Y5962446D01*
X1925370Y5956249D01*
X1913077Y5948476D01*
X1901850Y5939180D01*
X1891893Y5928563D01*
X1883359Y5916777D01*
X1876348Y5904026D01*
X1875637Y5902299D01*
X1873453Y5898896D01*
X1870151Y5896660D01*
X1866188Y5895848D01*
X1240434Y5895848D01*
X1236421Y5896711D01*
X1233068Y5899048D01*
X1230884Y5902553D01*
X1230325Y5906617D01*
X1230782Y5914644D01*
X1229868Y5929833D01*
X1227124Y5944768D01*
X1222603Y5959297D01*
X1216355Y5973165D01*
X1208481Y5986170D01*
X1199134Y5998108D01*
X1188364Y6008878D01*
X1176426Y6018225D01*
X1163421Y6026099D01*
X1149553Y6032347D01*
X1135024Y6036868D01*
X1120089Y6039612D01*
X1104900Y6040526D01*
X1089710Y6039612D01*
X1074775Y6036868D01*
X1060246Y6032347D01*
X1046378Y6026099D01*
X1033373Y6018225D01*
X1021435Y6008878D01*
X1010666Y5998108D01*
X1001318Y5986170D01*
X993444Y5973165D01*
X987196Y5959297D01*
X982675Y5944768D01*
X979932Y5929833D01*
X979017Y5914644D01*
X979932Y5899454D01*
X982675Y5884519D01*
X987196Y5869990D01*
X993444Y5856122D01*
X1001318Y5843117D01*
X1010666Y5831179D01*
X1021435Y5820410D01*
X1033373Y5811062D01*
X1046378Y5803188D01*
X1060246Y5796940D01*
X1074775Y5792419D01*
X1089710Y5789676D01*
X1104900Y5788761D01*
X1120089Y5789676D01*
X1135024Y5792419D01*
X1149553Y5796940D01*
X1163421Y5803188D01*
X1179779Y5812993D01*
X1183132Y5813552D01*
X1866188Y5813552D01*
X1870151Y5812739D01*
X1873453Y5810504D01*
X1875637Y5807100D01*
X1876348Y5805373D01*
X1883359Y5792622D01*
X1891893Y5780836D01*
X1901850Y5770219D01*
X1913077Y5760923D01*
X1925370Y5753150D01*
X1938528Y5746953D01*
X1952396Y5742432D01*
X1966671Y5739739D01*
G37*
G36*
X4518152Y5875020D02*
G01*
X4577080Y5875020D01*
X4577080Y5933948D01*
X4544618Y5933948D01*
X4538319Y5933236D01*
X4532833Y5931306D01*
X4527956Y5928258D01*
X4523841Y5924143D01*
X4520793Y5919266D01*
X4518863Y5913780D01*
X4518152Y5907481D01*
G37*
G36*
X4668520Y5875020D02*
G01*
X4727448Y5875020D01*
X4727448Y5907481D01*
X4726736Y5913780D01*
X4724806Y5919266D01*
X4721758Y5924143D01*
X4717643Y5928258D01*
X4712766Y5931306D01*
X4707280Y5933236D01*
X4700981Y5933948D01*
X4668520Y5933948D01*
G37*
G36*
X2743200Y5992825D02*
G01*
X2757728Y5993739D01*
X2772003Y5996432D01*
X2785872Y6000953D01*
X2799029Y6007150D01*
X2811322Y6014923D01*
X2822549Y6024219D01*
X2832506Y6034836D01*
X2841040Y6046622D01*
X2848051Y6059373D01*
X2853436Y6072886D01*
X2857042Y6087008D01*
X2858871Y6101435D01*
X2858871Y6115964D01*
X2857042Y6130391D01*
X2853436Y6144514D01*
X2848051Y6158026D01*
X2841040Y6170777D01*
X2832506Y6182563D01*
X2822549Y6193180D01*
X2811322Y6202476D01*
X2799029Y6210249D01*
X2785872Y6216446D01*
X2772003Y6220968D01*
X2767228Y6221882D01*
X2763926Y6223101D01*
X2761284Y6225387D01*
X2759557Y6228384D01*
X2758948Y6231839D01*
X2758948Y6268872D01*
X2759710Y6272733D01*
X2761894Y6276035D01*
X2765145Y6278219D01*
X2771241Y6280810D01*
X2783992Y6288176D01*
X2795778Y6297066D01*
X2806395Y6307328D01*
X2815640Y6318859D01*
X2823413Y6331407D01*
X2829560Y6344818D01*
X2834030Y6358839D01*
X2836773Y6373368D01*
X2837688Y6388100D01*
X2836773Y6402832D01*
X2834030Y6417360D01*
X2829560Y6431381D01*
X2823413Y6444792D01*
X2815640Y6457340D01*
X2806395Y6468872D01*
X2795778Y6479133D01*
X2783992Y6488023D01*
X2771241Y6495389D01*
X2757627Y6501130D01*
X2743454Y6505194D01*
X2728874Y6507480D01*
X2714091Y6507886D01*
X2699410Y6506565D01*
X2684983Y6503416D01*
X2671064Y6498488D01*
X2657856Y6491884D01*
X2645562Y6483756D01*
X2634335Y6474155D01*
X2624429Y6463233D01*
X2615895Y6451193D01*
X2608884Y6438188D01*
X2603550Y6424422D01*
X2599994Y6410147D01*
X2598166Y6395466D01*
X2598166Y6380734D01*
X2599994Y6366052D01*
X2603550Y6351778D01*
X2608884Y6338011D01*
X2615895Y6325006D01*
X2624429Y6312966D01*
X2634335Y6302044D01*
X2645562Y6292443D01*
X2657856Y6284315D01*
X2671013Y6277762D01*
X2674010Y6275476D01*
X2675940Y6272326D01*
X2676652Y6268669D01*
X2676652Y6208522D01*
X2675686Y6204204D01*
X2672943Y6200698D01*
X2663850Y6193180D01*
X2653893Y6182563D01*
X2645359Y6170777D01*
X2638348Y6158026D01*
X2632964Y6144514D01*
X2629357Y6130391D01*
X2627528Y6115964D01*
X2627528Y6101435D01*
X2629357Y6087008D01*
X2632964Y6072886D01*
X2638348Y6059373D01*
X2645359Y6046622D01*
X2653893Y6034836D01*
X2663850Y6024219D01*
X2675077Y6014923D01*
X2687370Y6007150D01*
X2700528Y6000953D01*
X2714396Y5996432D01*
X2728671Y5993739D01*
G37*
G36*
X1981200Y5992825D02*
G01*
X1995728Y5993739D01*
X2010003Y5996432D01*
X2023872Y6000953D01*
X2037029Y6007150D01*
X2049322Y6014923D01*
X2060549Y6024219D01*
X2070506Y6034836D01*
X2079040Y6046622D01*
X2086051Y6059373D01*
X2091436Y6072886D01*
X2095042Y6087008D01*
X2096871Y6101435D01*
X2096871Y6115964D01*
X2095042Y6130391D01*
X2091436Y6144514D01*
X2086051Y6158026D01*
X2079040Y6170777D01*
X2070506Y6182563D01*
X2060549Y6193180D01*
X2049322Y6202476D01*
X2037029Y6210249D01*
X2023872Y6216446D01*
X2010003Y6220968D01*
X1995728Y6223660D01*
X1981200Y6224574D01*
X1966671Y6223660D01*
X1952396Y6220968D01*
X1938528Y6216446D01*
X1925370Y6210249D01*
X1913077Y6202476D01*
X1901850Y6193180D01*
X1891893Y6182563D01*
X1883359Y6170777D01*
X1876348Y6158026D01*
X1875637Y6156299D01*
X1873453Y6152896D01*
X1870151Y6150660D01*
X1866188Y6149848D01*
X1850034Y6149848D01*
X1846173Y6150610D01*
X1842871Y6152845D01*
X1447038Y6548678D01*
X1444802Y6552082D01*
X1444091Y6556095D01*
X1445260Y6560718D01*
X1449730Y6574739D01*
X1452473Y6589268D01*
X1453388Y6604000D01*
X1452473Y6618731D01*
X1449730Y6633260D01*
X1445260Y6647281D01*
X1439113Y6660692D01*
X1431340Y6673240D01*
X1422095Y6684772D01*
X1411478Y6695033D01*
X1399692Y6703923D01*
X1386941Y6711289D01*
X1373327Y6717030D01*
X1359154Y6721094D01*
X1344574Y6723380D01*
X1329791Y6723786D01*
X1315110Y6722465D01*
X1300683Y6719316D01*
X1286764Y6714388D01*
X1273556Y6707784D01*
X1261262Y6699656D01*
X1250035Y6690055D01*
X1240129Y6679133D01*
X1231595Y6667093D01*
X1224584Y6654088D01*
X1219250Y6640322D01*
X1215694Y6626047D01*
X1213866Y6611366D01*
X1213866Y6596634D01*
X1215694Y6581952D01*
X1219250Y6567678D01*
X1224584Y6553911D01*
X1231595Y6540906D01*
X1240129Y6528866D01*
X1250035Y6517944D01*
X1261262Y6508343D01*
X1273556Y6500215D01*
X1286764Y6493611D01*
X1300683Y6488684D01*
X1315110Y6485534D01*
X1329791Y6484162D01*
X1344574Y6484620D01*
X1359154Y6486906D01*
X1373327Y6490970D01*
X1377594Y6492748D01*
X1381506Y6493560D01*
X1385417Y6492798D01*
X1388719Y6490563D01*
X1799336Y6079947D01*
X1805939Y6074511D01*
X1813052Y6070701D01*
X1820773Y6068364D01*
X1829307Y6067552D01*
X1866188Y6067552D01*
X1870151Y6066739D01*
X1873453Y6064504D01*
X1875637Y6061100D01*
X1876348Y6059373D01*
X1883359Y6046622D01*
X1891893Y6034836D01*
X1901850Y6024219D01*
X1913077Y6014923D01*
X1925370Y6007150D01*
X1938528Y6000953D01*
X1952396Y5996432D01*
X1966671Y5993739D01*
G37*
G36*
X1952091Y6268262D02*
G01*
X1966874Y6268720D01*
X1981454Y6271006D01*
X1995627Y6275070D01*
X2009241Y6280810D01*
X2021992Y6288176D01*
X2033778Y6297066D01*
X2044395Y6307328D01*
X2053640Y6318859D01*
X2061413Y6331407D01*
X2067560Y6344818D01*
X2072030Y6358839D01*
X2074773Y6373368D01*
X2075688Y6388100D01*
X2074773Y6402832D01*
X2072030Y6417360D01*
X2067560Y6431381D01*
X2061413Y6444792D01*
X2053640Y6457340D01*
X2044395Y6468872D01*
X2038705Y6474409D01*
X2036419Y6477660D01*
X2035606Y6481622D01*
X2036368Y6485534D01*
X2038553Y6488887D01*
X2040229Y6490512D01*
X2043328Y6492646D01*
X2047036Y6493459D01*
X2050796Y6492900D01*
X2062683Y6488684D01*
X2077110Y6485534D01*
X2091791Y6484162D01*
X2106574Y6484620D01*
X2121154Y6486906D01*
X2135327Y6490970D01*
X2148941Y6496710D01*
X2161692Y6504076D01*
X2173478Y6512966D01*
X2184095Y6523228D01*
X2193340Y6534759D01*
X2201113Y6547307D01*
X2207260Y6560718D01*
X2211730Y6574739D01*
X2214473Y6589268D01*
X2215388Y6604000D01*
X2214473Y6618731D01*
X2211730Y6633260D01*
X2207260Y6647281D01*
X2201113Y6660692D01*
X2193340Y6673240D01*
X2184095Y6684772D01*
X2173478Y6695033D01*
X2161692Y6703923D01*
X2148941Y6711289D01*
X2135327Y6717030D01*
X2121154Y6721094D01*
X2106574Y6723380D01*
X2091791Y6723786D01*
X2077110Y6722465D01*
X2062683Y6719316D01*
X2048764Y6714388D01*
X2035556Y6707784D01*
X2023262Y6699656D01*
X2012035Y6690055D01*
X2002129Y6679133D01*
X1993595Y6667093D01*
X1986584Y6654088D01*
X1981250Y6640322D01*
X1977694Y6626047D01*
X1975866Y6611366D01*
X1975866Y6596634D01*
X1977694Y6581952D01*
X1981250Y6567678D01*
X1984400Y6559651D01*
X1985060Y6555841D01*
X1984248Y6552031D01*
X1982063Y6548780D01*
X1942642Y6509359D01*
X1940306Y6507581D01*
X1937613Y6506616D01*
X1922983Y6503416D01*
X1909064Y6498488D01*
X1895856Y6491884D01*
X1883562Y6483756D01*
X1872335Y6474155D01*
X1862429Y6463233D01*
X1853895Y6451193D01*
X1846884Y6438188D01*
X1841550Y6424422D01*
X1837994Y6410147D01*
X1836166Y6395466D01*
X1836166Y6380734D01*
X1837994Y6366052D01*
X1841550Y6351778D01*
X1846884Y6338011D01*
X1853895Y6325006D01*
X1862429Y6312966D01*
X1872335Y6302044D01*
X1883562Y6292443D01*
X1895856Y6284315D01*
X1909064Y6277711D01*
X1922983Y6272784D01*
X1937410Y6269634D01*
G37*
G36*
X3830320Y6383121D02*
G01*
X3836924Y6386372D01*
X3848303Y6393992D01*
X3858564Y6403035D01*
X3867607Y6413296D01*
X3875227Y6424676D01*
X3878478Y6431280D01*
X3830320Y6431280D01*
G37*
G36*
X3738879Y6383121D02*
G01*
X3738879Y6431280D01*
X3690721Y6431280D01*
X3693972Y6424676D01*
X3701592Y6413296D01*
X3710635Y6403035D01*
X3720896Y6393992D01*
X3732276Y6386372D01*
G37*
G36*
X3009900Y6400292D02*
G01*
X3025292Y6401257D01*
X3040430Y6404000D01*
X3055112Y6408572D01*
X3069132Y6414922D01*
X3082340Y6422898D01*
X3094431Y6432397D01*
X3105302Y6443268D01*
X3114802Y6455359D01*
X3122777Y6468567D01*
X3129127Y6482588D01*
X3133699Y6497269D01*
X3136442Y6512407D01*
X3137408Y6527800D01*
X3136442Y6543192D01*
X3133699Y6558330D01*
X3129127Y6573012D01*
X3122777Y6587032D01*
X3114802Y6600240D01*
X3105302Y6612331D01*
X3094431Y6623202D01*
X3082340Y6632702D01*
X3069132Y6640677D01*
X3055112Y6647027D01*
X3040430Y6651599D01*
X3025292Y6654342D01*
X3009900Y6655308D01*
X2994507Y6654342D01*
X2979369Y6651599D01*
X2964688Y6647027D01*
X2950667Y6640677D01*
X2937459Y6632702D01*
X2925368Y6623202D01*
X2914497Y6612331D01*
X2904998Y6600240D01*
X2897022Y6587032D01*
X2890672Y6573012D01*
X2886100Y6558330D01*
X2883357Y6543192D01*
X2882392Y6527800D01*
X2883357Y6512407D01*
X2886100Y6497269D01*
X2890672Y6482588D01*
X2897022Y6468567D01*
X2904998Y6455359D01*
X2914497Y6443268D01*
X2925368Y6432397D01*
X2937459Y6422898D01*
X2950667Y6414922D01*
X2964688Y6408572D01*
X2979369Y6404000D01*
X2994507Y6401257D01*
G37*
G36*
X1016000Y6463792D02*
G01*
X1031392Y6464757D01*
X1046530Y6467500D01*
X1061212Y6472072D01*
X1075232Y6478422D01*
X1088440Y6486398D01*
X1100531Y6495897D01*
X1111402Y6506768D01*
X1120902Y6518859D01*
X1128877Y6532067D01*
X1135227Y6546088D01*
X1139799Y6560769D01*
X1142542Y6575907D01*
X1143508Y6591300D01*
X1142542Y6606692D01*
X1139799Y6621830D01*
X1135227Y6636512D01*
X1128877Y6650532D01*
X1120902Y6663740D01*
X1111402Y6675831D01*
X1100531Y6686702D01*
X1088440Y6696202D01*
X1075232Y6704177D01*
X1061212Y6710527D01*
X1046530Y6715099D01*
X1031392Y6717842D01*
X1016000Y6718808D01*
X1000607Y6717842D01*
X985469Y6715099D01*
X970787Y6710527D01*
X956767Y6704177D01*
X943559Y6696202D01*
X931468Y6686702D01*
X920597Y6675831D01*
X911098Y6663740D01*
X903122Y6650532D01*
X896772Y6636512D01*
X892200Y6621830D01*
X889457Y6606692D01*
X888492Y6591300D01*
X889457Y6575907D01*
X892200Y6560769D01*
X896772Y6546088D01*
X903122Y6532067D01*
X911098Y6518859D01*
X920597Y6506768D01*
X931468Y6495897D01*
X943559Y6486398D01*
X956767Y6478422D01*
X970787Y6472072D01*
X985469Y6467500D01*
X1000607Y6464757D01*
G37*
G36*
X3690721Y6522720D02*
G01*
X3738879Y6522720D01*
X3738879Y6570878D01*
X3732276Y6567627D01*
X3720896Y6560007D01*
X3710635Y6550964D01*
X3701592Y6540703D01*
X3693972Y6529324D01*
G37*
G36*
X3830320Y6522720D02*
G01*
X3878478Y6522720D01*
X3875227Y6529324D01*
X3867607Y6540703D01*
X3858564Y6550964D01*
X3848303Y6560007D01*
X3836924Y6567627D01*
X3830320Y6570878D01*
G37*

%LPD*%
D10*
X2717800Y6388100D02*
G01*
X2717800Y6134100D01*
X2743200Y6108700D01*
X1955800Y6388100D02*
G01*
X1955800Y6464300D01*
X2095500Y6604000D01*
X1981200Y6108700D02*
G01*
X1828800Y6108700D01*
X1333500Y6604000D01*
X1981200Y5854700D02*
G01*
X1164844Y5854700D01*
X1104900Y5914644D01*
X1981200Y5600700D02*
G01*
X1701800Y5600700D01*
X1587500Y5486400D01*
X1177544Y5486400D01*
X1104900Y5413755D01*
X4622800Y5575300D02*
G01*
X4610100Y5575300D01*
X4076700Y5041900D01*
X3314700Y5041900D02*
G01*
X3314700Y5626100D01*
X3314700Y5626100D02*
G01*
X3022600Y5626100D01*
X2743200Y5346700D01*
X3530600Y6477000D02*
G01*
X3530600Y6388100D01*
X2743200Y5600700D01*
X4076700Y5041900D02*
G01*
X3873500Y5041900D01*
X3632200Y4800600D01*
X2460243Y4800600D01*
X2371343Y4711700D01*
X2371343Y4711700D02*
G01*
X2371343Y5829300D01*
X2717800Y5829300D01*
X2743200Y5854700D01*
D11*
G01*
X1955800Y6388100D03*
G01*
X2717800Y6388100D03*
G01*
X4076700Y5041900D03*
G01*
X3314700Y5041900D03*
G01*
X4076700Y5626100D03*
G01*
X3314700Y5626100D03*
G01*
X1333500Y6604000D03*
G01*
X2095500Y6604000D03*
D12*
G01*
X1981200Y6108700D03*
G01*
X1981200Y5854700D03*
G01*
X1981200Y5600700D03*
G01*
X1981200Y5346700D03*
D13*
G01*
X2743200Y5346700D03*
D12*
G01*
X2743200Y5854700D03*
G01*
X2743200Y6108700D03*
D13*
G01*
X2743200Y5600700D03*
D14*
G01*
X4622800Y5829300D03*
D15*
G01*
X4622800Y5575300D03*
D14*
G01*
X3530600Y6477000D03*
D15*
G01*
X3784600Y6477000D03*
D16*
G01*
X1870455Y4711700D03*
G01*
X2371343Y4711700D03*
G01*
X1104900Y5914644D03*
G01*
X1104900Y5413755D03*
M02*
