%TF.GenerationSoftware,KiCad,Pcbnew,7.0.9*%
%TF.CreationDate,2023-12-14T14:42:03+01:00*%
%TF.ProjectId,Group15_AMP,47726f75-7031-4355-9f41-4d502e6b6963,00*%
%TF.SameCoordinates,PX66f2fb0PY6bcb370*%
%TF.FileFunction,Copper,L1,Top*%
%TF.FilePolarity,Positive*%
%FSLAX46Y46*%
G04 Gerber Fmt 4.6, Leading zero omitted, Abs format (unit mm)*
G04 Created by KiCad (PCBNEW 7.0.9) date 2023-12-14 14:42:03*
%MOMM*%
%LPD*%
G01*
G04 APERTURE LIST*
%ADD10C,0.300000*%
%TA.AperFunction,NonConductor*%
%ADD11C,0.300000*%
%TD*%
%TA.AperFunction,ComponentPad*%
%ADD12R,1.200000X1.200000*%
%TD*%
%TA.AperFunction,ComponentPad*%
%ADD13C,1.200000*%
%TD*%
%TA.AperFunction,ComponentPad*%
%ADD14R,3.960000X1.980000*%
%TD*%
%TA.AperFunction,ComponentPad*%
%ADD15O,3.960000X1.980000*%
%TD*%
%TA.AperFunction,ComponentPad*%
%ADD16R,1.980000X3.960000*%
%TD*%
%TA.AperFunction,ComponentPad*%
%ADD17O,1.980000X3.960000*%
%TD*%
%TA.AperFunction,ComponentPad*%
%ADD18C,1.600000*%
%TD*%
%TA.AperFunction,ComponentPad*%
%ADD19O,1.600000X1.600000*%
%TD*%
%TA.AperFunction,ComponentPad*%
%ADD20R,1.000000X1.000000*%
%TD*%
%TA.AperFunction,ComponentPad*%
%ADD21O,1.000000X1.000000*%
%TD*%
%TA.AperFunction,ComponentPad*%
%ADD22R,1.600000X1.600000*%
%TD*%
G04 APERTURE END LIST*
D10*
D11*
X4896653Y14284172D02*
X5253796Y13284172D01*
X5253796Y13284172D02*
X5610939Y14284172D01*
X6753796Y13355600D02*
X6610939Y13284172D01*
X6610939Y13284172D02*
X6325225Y13284172D01*
X6325225Y13284172D02*
X6182367Y13355600D01*
X6182367Y13355600D02*
X6110939Y13498458D01*
X6110939Y13498458D02*
X6110939Y14069886D01*
X6110939Y14069886D02*
X6182367Y14212743D01*
X6182367Y14212743D02*
X6325225Y14284172D01*
X6325225Y14284172D02*
X6610939Y14284172D01*
X6610939Y14284172D02*
X6753796Y14212743D01*
X6753796Y14212743D02*
X6825225Y14069886D01*
X6825225Y14069886D02*
X6825225Y13927029D01*
X6825225Y13927029D02*
X6110939Y13784172D01*
X7468081Y13284172D02*
X7468081Y14284172D01*
X7468081Y13998458D02*
X7539510Y14141315D01*
X7539510Y14141315D02*
X7610939Y14212743D01*
X7610939Y14212743D02*
X7753796Y14284172D01*
X7753796Y14284172D02*
X7896653Y14284172D01*
X8325224Y13355600D02*
X8468081Y13284172D01*
X8468081Y13284172D02*
X8753795Y13284172D01*
X8753795Y13284172D02*
X8896652Y13355600D01*
X8896652Y13355600D02*
X8968081Y13498458D01*
X8968081Y13498458D02*
X8968081Y13569886D01*
X8968081Y13569886D02*
X8896652Y13712743D01*
X8896652Y13712743D02*
X8753795Y13784172D01*
X8753795Y13784172D02*
X8539510Y13784172D01*
X8539510Y13784172D02*
X8396652Y13855600D01*
X8396652Y13855600D02*
X8325224Y13998458D01*
X8325224Y13998458D02*
X8325224Y14069886D01*
X8325224Y14069886D02*
X8396652Y14212743D01*
X8396652Y14212743D02*
X8539510Y14284172D01*
X8539510Y14284172D02*
X8753795Y14284172D01*
X8753795Y14284172D02*
X8896652Y14212743D01*
X9610938Y13284172D02*
X9610938Y14284172D01*
X9610938Y14784172D02*
X9539510Y14712743D01*
X9539510Y14712743D02*
X9610938Y14641315D01*
X9610938Y14641315D02*
X9682367Y14712743D01*
X9682367Y14712743D02*
X9610938Y14784172D01*
X9610938Y14784172D02*
X9610938Y14641315D01*
X10539510Y13284172D02*
X10396653Y13355600D01*
X10396653Y13355600D02*
X10325224Y13427029D01*
X10325224Y13427029D02*
X10253796Y13569886D01*
X10253796Y13569886D02*
X10253796Y13998458D01*
X10253796Y13998458D02*
X10325224Y14141315D01*
X10325224Y14141315D02*
X10396653Y14212743D01*
X10396653Y14212743D02*
X10539510Y14284172D01*
X10539510Y14284172D02*
X10753796Y14284172D01*
X10753796Y14284172D02*
X10896653Y14212743D01*
X10896653Y14212743D02*
X10968082Y14141315D01*
X10968082Y14141315D02*
X11039510Y13998458D01*
X11039510Y13998458D02*
X11039510Y13569886D01*
X11039510Y13569886D02*
X10968082Y13427029D01*
X10968082Y13427029D02*
X10896653Y13355600D01*
X10896653Y13355600D02*
X10753796Y13284172D01*
X10753796Y13284172D02*
X10539510Y13284172D01*
X11682367Y14284172D02*
X11682367Y13284172D01*
X11682367Y14141315D02*
X11753796Y14212743D01*
X11753796Y14212743D02*
X11896653Y14284172D01*
X11896653Y14284172D02*
X12110939Y14284172D01*
X12110939Y14284172D02*
X12253796Y14212743D01*
X12253796Y14212743D02*
X12325225Y14069886D01*
X12325225Y14069886D02*
X12325225Y13284172D01*
X13039510Y13427029D02*
X13110939Y13355600D01*
X13110939Y13355600D02*
X13039510Y13284172D01*
X13039510Y13284172D02*
X12968082Y13355600D01*
X12968082Y13355600D02*
X13039510Y13427029D01*
X13039510Y13427029D02*
X13039510Y13284172D01*
X13039510Y14212743D02*
X13110939Y14141315D01*
X13110939Y14141315D02*
X13039510Y14069886D01*
X13039510Y14069886D02*
X12968082Y14141315D01*
X12968082Y14141315D02*
X13039510Y14212743D01*
X13039510Y14212743D02*
X13039510Y14069886D01*
X5325225Y12369172D02*
X5468082Y12369172D01*
X5468082Y12369172D02*
X5610939Y12297743D01*
X5610939Y12297743D02*
X5682368Y12226315D01*
X5682368Y12226315D02*
X5753796Y12083458D01*
X5753796Y12083458D02*
X5825225Y11797743D01*
X5825225Y11797743D02*
X5825225Y11440600D01*
X5825225Y11440600D02*
X5753796Y11154886D01*
X5753796Y11154886D02*
X5682368Y11012029D01*
X5682368Y11012029D02*
X5610939Y10940600D01*
X5610939Y10940600D02*
X5468082Y10869172D01*
X5468082Y10869172D02*
X5325225Y10869172D01*
X5325225Y10869172D02*
X5182368Y10940600D01*
X5182368Y10940600D02*
X5110939Y11012029D01*
X5110939Y11012029D02*
X5039510Y11154886D01*
X5039510Y11154886D02*
X4968082Y11440600D01*
X4968082Y11440600D02*
X4968082Y11797743D01*
X4968082Y11797743D02*
X5039510Y12083458D01*
X5039510Y12083458D02*
X5110939Y12226315D01*
X5110939Y12226315D02*
X5182368Y12297743D01*
X5182368Y12297743D02*
X5325225Y12369172D01*
X6753796Y12369172D02*
X6896653Y12369172D01*
X6896653Y12369172D02*
X7039510Y12297743D01*
X7039510Y12297743D02*
X7110939Y12226315D01*
X7110939Y12226315D02*
X7182367Y12083458D01*
X7182367Y12083458D02*
X7253796Y11797743D01*
X7253796Y11797743D02*
X7253796Y11440600D01*
X7253796Y11440600D02*
X7182367Y11154886D01*
X7182367Y11154886D02*
X7110939Y11012029D01*
X7110939Y11012029D02*
X7039510Y10940600D01*
X7039510Y10940600D02*
X6896653Y10869172D01*
X6896653Y10869172D02*
X6753796Y10869172D01*
X6753796Y10869172D02*
X6610939Y10940600D01*
X6610939Y10940600D02*
X6539510Y11012029D01*
X6539510Y11012029D02*
X6468081Y11154886D01*
X6468081Y11154886D02*
X6396653Y11440600D01*
X6396653Y11440600D02*
X6396653Y11797743D01*
X6396653Y11797743D02*
X6468081Y12083458D01*
X6468081Y12083458D02*
X6539510Y12226315D01*
X6539510Y12226315D02*
X6610939Y12297743D01*
X6610939Y12297743D02*
X6753796Y12369172D01*
D12*
%TO.P,C1,1*%
%TO.N,IN3.3*%
X42800000Y23780000D03*
D13*
%TO.P,C1,2*%
%TO.N,GND*%
X42800000Y25280000D03*
%TD*%
D14*
%TO.P,J1,1,Pin_1*%
%TO.N,/Vin+*%
X8825000Y20540000D03*
D15*
%TO.P,J1,2,Pin_2*%
%TO.N,/Vin-*%
X8825000Y25540000D03*
%TD*%
D16*
%TO.P,J3,1,Pin_1*%
%TO.N,GND*%
X21300000Y9030000D03*
D17*
%TO.P,J3,2,Pin_2*%
%TO.N,IN3.3*%
X26300000Y9030000D03*
%TD*%
D18*
%TO.P,R2,1*%
%TO.N,Net-(Ina122-Pad5)*%
X32955000Y19190000D03*
D19*
%TO.P,R2,2*%
%TO.N,GND*%
X43115000Y19190000D03*
%TD*%
D20*
%TO.P,J4,1,Pin_1*%
%TO.N,GND*%
X39370000Y33020000D03*
D21*
%TO.P,J4,2,Pin_2*%
%TO.N,/Vo*%
X38100000Y33020000D03*
%TD*%
D20*
%TO.P,J2,1,Pin_1*%
%TO.N,GND*%
X46990000Y25400000D03*
D21*
%TO.P,J2,2,Pin_2*%
%TO.N,IN3.3*%
X46990000Y24130000D03*
%TD*%
D18*
%TO.P,RG1,1*%
%TO.N,Net-(RG1-Pad1)*%
X25400000Y35560000D03*
D19*
%TO.P,RG1,2*%
%TO.N,Net-(Ina122-Pad1)*%
X15240000Y35560000D03*
%TD*%
D18*
%TO.P,RG2,1*%
%TO.N,Net-(Ina122-Pad8)*%
X33020000Y31750000D03*
D19*
%TO.P,RG2,2*%
%TO.N,Net-(RG1-Pad1)*%
X22860000Y31750000D03*
%TD*%
D18*
%TO.P,R1,1*%
%TO.N,IN3.3*%
X43115000Y14110000D03*
D19*
%TO.P,R1,2*%
%TO.N,Net-(Ina122-Pad5)*%
X32955000Y14110000D03*
%TD*%
D22*
%TO.P,Ina122,1*%
%TO.N,Net-(Ina122-Pad1)*%
X20255000Y26810000D03*
D19*
%TO.P,Ina122,2*%
%TO.N,/Vin-*%
X20255000Y24270000D03*
%TO.P,Ina122,3*%
%TO.N,/Vin+*%
X20255000Y21730000D03*
%TO.P,Ina122,4*%
%TO.N,GND*%
X20255000Y19190000D03*
%TO.P,Ina122,5*%
%TO.N,Net-(Ina122-Pad5)*%
X27875000Y19190000D03*
%TO.P,Ina122,6*%
%TO.N,/Vo*%
X27875000Y21730000D03*
%TO.P,Ina122,7*%
%TO.N,IN3.3*%
X27875000Y24270000D03*
%TO.P,Ina122,8*%
%TO.N,Net-(Ina122-Pad8)*%
X27875000Y26810000D03*
%TD*%
%TA.AperFunction,Conductor*%
%TO.N,GND*%
G36*
X51495000Y40119538D02*
G01*
X51549538Y40065000D01*
X51569500Y39990500D01*
X51569500Y649500D01*
X51549538Y575000D01*
X51495000Y520462D01*
X51420500Y500500D01*
X649500Y500500D01*
X575000Y520462D01*
X520462Y575000D01*
X500500Y649500D01*
X500500Y5029995D01*
X5044390Y5029995D01*
X5064802Y4744583D01*
X5064804Y4744573D01*
X5125629Y4464960D01*
X5225633Y4196838D01*
X5362771Y3945688D01*
X5466128Y3807620D01*
X5534261Y3716605D01*
X5736605Y3514261D01*
X5873641Y3411677D01*
X5965687Y3342772D01*
X6216837Y3205634D01*
X6216839Y3205633D01*
X6484954Y3105631D01*
X6764572Y3044804D01*
X6764579Y3044804D01*
X6764582Y3044803D01*
X7049995Y3024390D01*
X7050000Y3024390D01*
X7050005Y3024390D01*
X7335417Y3044803D01*
X7335418Y3044804D01*
X7335428Y3044804D01*
X7615046Y3105631D01*
X7883161Y3205633D01*
X8022911Y3281943D01*
X8134312Y3342772D01*
X8134315Y3342774D01*
X8363395Y3514261D01*
X8565739Y3716605D01*
X8737226Y3945685D01*
X8874367Y4196839D01*
X8974369Y4464954D01*
X9035196Y4744572D01*
X9055610Y5029995D01*
X45044390Y5029995D01*
X45064802Y4744583D01*
X45064804Y4744573D01*
X45125629Y4464960D01*
X45225633Y4196838D01*
X45362771Y3945688D01*
X45466128Y3807620D01*
X45534261Y3716605D01*
X45736605Y3514261D01*
X45873641Y3411677D01*
X45965687Y3342772D01*
X46216837Y3205634D01*
X46216839Y3205633D01*
X46484954Y3105631D01*
X46764572Y3044804D01*
X46764579Y3044804D01*
X46764582Y3044803D01*
X47049995Y3024390D01*
X47050000Y3024390D01*
X47050005Y3024390D01*
X47335417Y3044803D01*
X47335418Y3044804D01*
X47335428Y3044804D01*
X47615046Y3105631D01*
X47883161Y3205633D01*
X48022911Y3281943D01*
X48134312Y3342772D01*
X48134315Y3342774D01*
X48363395Y3514261D01*
X48565739Y3716605D01*
X48737226Y3945685D01*
X48874367Y4196839D01*
X48974369Y4464954D01*
X49035196Y4744572D01*
X49055610Y5030000D01*
X49035196Y5315428D01*
X48974369Y5595046D01*
X48874367Y5863161D01*
X48825083Y5953418D01*
X48737228Y6114313D01*
X48668323Y6206359D01*
X48565739Y6343395D01*
X48363395Y6545739D01*
X48272380Y6613872D01*
X48134312Y6717229D01*
X47883162Y6854367D01*
X47654533Y6939641D01*
X47615046Y6954369D01*
X47615044Y6954370D01*
X47615040Y6954371D01*
X47395271Y7002178D01*
X47335428Y7015196D01*
X47335426Y7015197D01*
X47335417Y7015198D01*
X47050005Y7035610D01*
X47049995Y7035610D01*
X46764582Y7015198D01*
X46764572Y7015196D01*
X46484959Y6954371D01*
X46216837Y6854367D01*
X45965687Y6717229D01*
X45736606Y6545740D01*
X45534260Y6343394D01*
X45362771Y6114313D01*
X45225633Y5863163D01*
X45125629Y5595041D01*
X45064804Y5315428D01*
X45064802Y5315418D01*
X45044390Y5030006D01*
X45044390Y5029995D01*
X9055610Y5029995D01*
X9055610Y5030000D01*
X9035196Y5315428D01*
X8974369Y5595046D01*
X8874367Y5863161D01*
X8825083Y5953418D01*
X8737228Y6114313D01*
X8668323Y6206359D01*
X8565739Y6343395D01*
X8363395Y6545739D01*
X8272380Y6613872D01*
X8134312Y6717229D01*
X7883162Y6854367D01*
X7654533Y6939641D01*
X7615046Y6954369D01*
X7615044Y6954370D01*
X7615040Y6954371D01*
X7395271Y7002178D01*
X19810000Y7002178D01*
X19810001Y7002158D01*
X19816401Y6942623D01*
X19866645Y6807916D01*
X19866650Y6807906D01*
X19952809Y6692813D01*
X19952812Y6692810D01*
X20067905Y6606651D01*
X20067915Y6606646D01*
X20202623Y6556402D01*
X20202621Y6556402D01*
X20262157Y6550002D01*
X20262177Y6550000D01*
X21050000Y6550000D01*
X21050000Y8418943D01*
X21140892Y8384472D01*
X21260081Y8370000D01*
X21339919Y8370000D01*
X21459108Y8384472D01*
X21550000Y8418943D01*
X21550000Y6550000D01*
X22337823Y6550000D01*
X22337842Y6550002D01*
X22397377Y6556402D01*
X22532084Y6606646D01*
X22532094Y6606651D01*
X22647187Y6692810D01*
X22647190Y6692813D01*
X22733349Y6807906D01*
X22733354Y6807916D01*
X22783598Y6942623D01*
X22789998Y7002158D01*
X22790000Y7002178D01*
X22790000Y7978360D01*
X24809500Y7978360D01*
X24824789Y7793836D01*
X24885428Y7554375D01*
X24984649Y7328175D01*
X24984652Y7328169D01*
X25087046Y7171444D01*
X25119756Y7121377D01*
X25287054Y6939643D01*
X25287056Y6939641D01*
X25456298Y6807916D01*
X25481980Y6787927D01*
X25481986Y6787924D01*
X25657740Y6692810D01*
X25699221Y6670362D01*
X25932850Y6590157D01*
X26176494Y6549500D01*
X26176496Y6549500D01*
X26423504Y6549500D01*
X26423506Y6549500D01*
X26667150Y6590157D01*
X26900779Y6670362D01*
X27118020Y6787927D01*
X27312948Y6939645D01*
X27480245Y7121379D01*
X27615348Y7328169D01*
X27714572Y7554377D01*
X27775210Y7793831D01*
X27790500Y7978355D01*
X27790500Y10081645D01*
X27775210Y10266169D01*
X27714572Y10505623D01*
X27615348Y10731831D01*
X27480245Y10938621D01*
X27480244Y10938622D01*
X27480243Y10938624D01*
X27352815Y11077047D01*
X27312948Y11120355D01*
X27312947Y11120356D01*
X27312945Y11120358D01*
X27312943Y11120360D01*
X27118024Y11272070D01*
X27118023Y11272071D01*
X27118020Y11272073D01*
X27118013Y11272077D01*
X26900784Y11389636D01*
X26900780Y11389638D01*
X26667153Y11469842D01*
X26667152Y11469843D01*
X26667150Y11469843D01*
X26423506Y11510500D01*
X26176494Y11510500D01*
X25932850Y11469843D01*
X25932848Y11469843D01*
X25932846Y11469842D01*
X25699219Y11389638D01*
X25699215Y11389636D01*
X25481986Y11272077D01*
X25481975Y11272070D01*
X25287056Y11120360D01*
X25287054Y11120358D01*
X25119756Y10938624D01*
X24984651Y10731829D01*
X24984649Y10731826D01*
X24885428Y10505626D01*
X24824789Y10266165D01*
X24809500Y10081640D01*
X24809500Y7978360D01*
X22790000Y7978360D01*
X22790000Y8780000D01*
X21914168Y8780000D01*
X21921643Y8794242D01*
X21960000Y8949862D01*
X21960000Y9110138D01*
X21921643Y9265758D01*
X21914168Y9280000D01*
X22790000Y9280000D01*
X22790000Y11057823D01*
X22789998Y11057843D01*
X22783598Y11117378D01*
X22733354Y11252085D01*
X22733349Y11252095D01*
X22647190Y11367188D01*
X22647187Y11367191D01*
X22532094Y11453350D01*
X22532084Y11453355D01*
X22397376Y11503599D01*
X22397378Y11503599D01*
X22337842Y11509999D01*
X22337823Y11510000D01*
X21550000Y11510000D01*
X21550000Y9641058D01*
X21459108Y9675528D01*
X21339919Y9690000D01*
X21260081Y9690000D01*
X21140892Y9675528D01*
X21050000Y9641058D01*
X21050000Y11510000D01*
X20262177Y11510000D01*
X20262157Y11509999D01*
X20202622Y11503599D01*
X20067915Y11453355D01*
X20067905Y11453350D01*
X19952812Y11367191D01*
X19952809Y11367188D01*
X19866650Y11252095D01*
X19866645Y11252085D01*
X19816401Y11117378D01*
X19810001Y11057843D01*
X19810000Y11057823D01*
X19810000Y9280000D01*
X20685832Y9280000D01*
X20678357Y9265758D01*
X20640000Y9110138D01*
X20640000Y8949862D01*
X20678357Y8794242D01*
X20685832Y8780000D01*
X19810000Y8780000D01*
X19810000Y7002178D01*
X7395271Y7002178D01*
X7335428Y7015196D01*
X7335426Y7015197D01*
X7335417Y7015198D01*
X7050005Y7035610D01*
X7049995Y7035610D01*
X6764582Y7015198D01*
X6764572Y7015196D01*
X6484959Y6954371D01*
X6216837Y6854367D01*
X5965687Y6717229D01*
X5736606Y6545740D01*
X5534260Y6343394D01*
X5362771Y6114313D01*
X5225633Y5863163D01*
X5125629Y5595041D01*
X5064804Y5315428D01*
X5064802Y5315418D01*
X5044390Y5030006D01*
X5044390Y5029995D01*
X500500Y5029995D01*
X500500Y15439963D01*
X4243387Y15439963D01*
X4243387Y10213660D01*
X13761439Y10213660D01*
X13761439Y14110000D01*
X31649532Y14110000D01*
X31669365Y13883308D01*
X31728261Y13663504D01*
X31824432Y13457266D01*
X31824435Y13457262D01*
X31824437Y13457259D01*
X31954951Y13270863D01*
X31954953Y13270861D01*
X32115861Y13109953D01*
X32302266Y12979432D01*
X32508504Y12883261D01*
X32728308Y12824365D01*
X32955000Y12804532D01*
X33181692Y12824365D01*
X33401496Y12883261D01*
X33607734Y12979432D01*
X33794139Y13109953D01*
X33955047Y13270861D01*
X34085568Y13457266D01*
X34181739Y13663504D01*
X34240635Y13883308D01*
X34260468Y14110000D01*
X41809532Y14110000D01*
X41829365Y13883308D01*
X41888261Y13663504D01*
X41984432Y13457266D01*
X41984435Y13457262D01*
X41984437Y13457259D01*
X42114951Y13270863D01*
X42114953Y13270861D01*
X42275861Y13109953D01*
X42462266Y12979432D01*
X42668504Y12883261D01*
X42888308Y12824365D01*
X43115000Y12804532D01*
X43341692Y12824365D01*
X43561496Y12883261D01*
X43767734Y12979432D01*
X43954139Y13109953D01*
X44115047Y13270861D01*
X44245568Y13457266D01*
X44341739Y13663504D01*
X44400635Y13883308D01*
X44420468Y14110000D01*
X44400635Y14336692D01*
X44341739Y14556496D01*
X44245568Y14762734D01*
X44115047Y14949139D01*
X43954139Y15110047D01*
X43954137Y15110049D01*
X43767741Y15240563D01*
X43767738Y15240565D01*
X43767734Y15240568D01*
X43561496Y15336739D01*
X43341692Y15395635D01*
X43341693Y15395635D01*
X43115000Y15415468D01*
X42888306Y15395635D01*
X42668507Y15336740D01*
X42668506Y15336740D01*
X42668504Y15336739D01*
X42462266Y15240568D01*
X42462263Y15240566D01*
X42462261Y15240565D01*
X42462258Y15240563D01*
X42275862Y15110049D01*
X42114951Y14949138D01*
X41984437Y14762742D01*
X41984435Y14762739D01*
X41984434Y14762737D01*
X41984432Y14762734D01*
X41888261Y14556496D01*
X41888260Y14556493D01*
X41829365Y14336694D01*
X41829365Y14336692D01*
X41809532Y14110000D01*
X34260468Y14110000D01*
X34240635Y14336692D01*
X34181739Y14556496D01*
X34085568Y14762734D01*
X33955047Y14949139D01*
X33794139Y15110047D01*
X33794137Y15110049D01*
X33607741Y15240563D01*
X33607738Y15240565D01*
X33607734Y15240568D01*
X33401496Y15336739D01*
X33181692Y15395635D01*
X33181693Y15395635D01*
X32955000Y15415468D01*
X32728306Y15395635D01*
X32508507Y15336740D01*
X32508506Y15336740D01*
X32508504Y15336739D01*
X32302266Y15240568D01*
X32302263Y15240566D01*
X32302261Y15240565D01*
X32302258Y15240563D01*
X32115862Y15110049D01*
X31954951Y14949138D01*
X31824437Y14762742D01*
X31824435Y14762739D01*
X31824434Y14762737D01*
X31824432Y14762734D01*
X31728261Y14556496D01*
X31728260Y14556493D01*
X31669365Y14336694D01*
X31669365Y14336692D01*
X31649532Y14110000D01*
X13761439Y14110000D01*
X13761439Y15439963D01*
X4243387Y15439963D01*
X500500Y15439963D01*
X500500Y19502137D01*
X6344500Y19502137D01*
X6344502Y19502112D01*
X6350908Y19442522D01*
X6350909Y19442516D01*
X6401202Y19307671D01*
X6401204Y19307667D01*
X6487452Y19192456D01*
X6487455Y19192453D01*
X6602666Y19106205D01*
X6602670Y19106203D01*
X6737517Y19055909D01*
X6797114Y19049501D01*
X6797118Y19049501D01*
X6797127Y19049500D01*
X10852872Y19049501D01*
X10912483Y19055909D01*
X11008447Y19091702D01*
X11047329Y19106203D01*
X11047333Y19106205D01*
X11104938Y19149329D01*
X11162546Y19192454D01*
X11248796Y19307669D01*
X11251586Y19315148D01*
X11289459Y19416692D01*
X11299091Y19442517D01*
X11300823Y19458630D01*
X11305499Y19502115D01*
X11305499Y19502118D01*
X11305500Y19502127D01*
X11305499Y21577872D01*
X11299091Y21637483D01*
X11284588Y21676367D01*
X11264585Y21730000D01*
X18949532Y21730000D01*
X18969365Y21503308D01*
X19028261Y21283504D01*
X19124432Y21077266D01*
X19124435Y21077262D01*
X19124437Y21077259D01*
X19254951Y20890863D01*
X19254953Y20890861D01*
X19415861Y20729953D01*
X19602266Y20599432D01*
X19612279Y20594763D01*
X19671360Y20545186D01*
X19697738Y20472708D01*
X19684344Y20396752D01*
X19634766Y20337670D01*
X19612278Y20324687D01*
X19602529Y20320142D01*
X19602517Y20320135D01*
X19416182Y20189661D01*
X19255339Y20028818D01*
X19124865Y19842483D01*
X19124862Y19842478D01*
X19028733Y19636326D01*
X19028732Y19636324D01*
X18976127Y19440001D01*
X18976128Y19440000D01*
X19939314Y19440000D01*
X19927359Y19428045D01*
X19869835Y19315148D01*
X19850014Y19190000D01*
X19869835Y19064852D01*
X19927359Y18951955D01*
X19939314Y18940000D01*
X18976128Y18940000D01*
X19028732Y18743677D01*
X19028733Y18743675D01*
X19124862Y18537523D01*
X19124865Y18537518D01*
X19255339Y18351183D01*
X19416182Y18190340D01*
X19602517Y18059866D01*
X19602522Y18059863D01*
X19808674Y17963734D01*
X19808676Y17963733D01*
X20004999Y17911128D01*
X20005000Y17911129D01*
X20005000Y18874314D01*
X20016955Y18862359D01*
X20129852Y18804835D01*
X20223519Y18790000D01*
X20286481Y18790000D01*
X20380148Y18804835D01*
X20493045Y18862359D01*
X20505000Y18874314D01*
X20505000Y17911128D01*
X20701323Y17963733D01*
X20701325Y17963734D01*
X20907477Y18059863D01*
X20907482Y18059866D01*
X21093817Y18190340D01*
X21254660Y18351183D01*
X21385134Y18537518D01*
X21385137Y18537523D01*
X21481266Y18743675D01*
X21481267Y18743677D01*
X21533872Y18940000D01*
X20570686Y18940000D01*
X20582641Y18951955D01*
X20640165Y19064852D01*
X20659986Y19190000D01*
X26569532Y19190000D01*
X26589365Y18963308D01*
X26648261Y18743504D01*
X26744432Y18537266D01*
X26744435Y18537262D01*
X26744437Y18537259D01*
X26874951Y18350863D01*
X26874953Y18350861D01*
X27035861Y18189953D01*
X27222266Y18059432D01*
X27428504Y17963261D01*
X27648308Y17904365D01*
X27875000Y17884532D01*
X28101692Y17904365D01*
X28321496Y17963261D01*
X28527734Y18059432D01*
X28714139Y18189953D01*
X28875047Y18350861D01*
X29005568Y18537266D01*
X29101739Y18743504D01*
X29160635Y18963308D01*
X29180468Y19190000D01*
X31649532Y19190000D01*
X31669365Y18963308D01*
X31728261Y18743504D01*
X31824432Y18537266D01*
X31824435Y18537262D01*
X31824437Y18537259D01*
X31954951Y18350863D01*
X31954953Y18350861D01*
X32115861Y18189953D01*
X32302266Y18059432D01*
X32508504Y17963261D01*
X32728308Y17904365D01*
X32955000Y17884532D01*
X33181692Y17904365D01*
X33401496Y17963261D01*
X33607734Y18059432D01*
X33794139Y18189953D01*
X33955047Y18350861D01*
X34085568Y18537266D01*
X34181739Y18743504D01*
X34240635Y18963308D01*
X34260468Y19190000D01*
X34240635Y19416692D01*
X34234389Y19440001D01*
X41836127Y19440001D01*
X41836128Y19440000D01*
X42799314Y19440000D01*
X42787359Y19428045D01*
X42729835Y19315148D01*
X42710014Y19190000D01*
X42729835Y19064852D01*
X42787359Y18951955D01*
X42799314Y18940000D01*
X41836128Y18940000D01*
X41888732Y18743677D01*
X41888733Y18743675D01*
X41984862Y18537523D01*
X41984865Y18537518D01*
X42115339Y18351183D01*
X42276182Y18190340D01*
X42462517Y18059866D01*
X42462522Y18059863D01*
X42668674Y17963734D01*
X42668676Y17963733D01*
X42864999Y17911128D01*
X42865000Y17911129D01*
X42865000Y18874314D01*
X42876955Y18862359D01*
X42989852Y18804835D01*
X43083519Y18790000D01*
X43146481Y18790000D01*
X43240148Y18804835D01*
X43353045Y18862359D01*
X43365000Y18874314D01*
X43365000Y17911128D01*
X43561323Y17963733D01*
X43561325Y17963734D01*
X43767477Y18059863D01*
X43767482Y18059866D01*
X43953817Y18190340D01*
X44114660Y18351183D01*
X44245134Y18537518D01*
X44245137Y18537523D01*
X44341266Y18743675D01*
X44341267Y18743677D01*
X44393872Y18940000D01*
X43430686Y18940000D01*
X43442641Y18951955D01*
X43500165Y19064852D01*
X43519986Y19190000D01*
X43500165Y19315148D01*
X43442641Y19428045D01*
X43430686Y19440000D01*
X44393872Y19440000D01*
X44393872Y19440001D01*
X44341267Y19636324D01*
X44341266Y19636326D01*
X44245137Y19842478D01*
X44245134Y19842483D01*
X44114660Y20028818D01*
X43953817Y20189661D01*
X43767482Y20320135D01*
X43767477Y20320138D01*
X43561325Y20416267D01*
X43365000Y20468873D01*
X43365000Y19505686D01*
X43353045Y19517641D01*
X43240148Y19575165D01*
X43146481Y19590000D01*
X43083519Y19590000D01*
X42989852Y19575165D01*
X42876955Y19517641D01*
X42865000Y19505686D01*
X42865000Y20468873D01*
X42668674Y20416267D01*
X42462522Y20320138D01*
X42462517Y20320135D01*
X42276182Y20189661D01*
X42115339Y20028818D01*
X41984865Y19842483D01*
X41984862Y19842478D01*
X41888733Y19636326D01*
X41888732Y19636324D01*
X41836127Y19440001D01*
X34234389Y19440001D01*
X34181739Y19636496D01*
X34085568Y19842734D01*
X33955047Y20029139D01*
X33794139Y20190047D01*
X33794137Y20190049D01*
X33607741Y20320563D01*
X33607738Y20320565D01*
X33607734Y20320568D01*
X33401496Y20416739D01*
X33181692Y20475635D01*
X33181693Y20475635D01*
X32955000Y20495468D01*
X32728306Y20475635D01*
X32508507Y20416740D01*
X32508506Y20416740D01*
X32508504Y20416739D01*
X32302266Y20320568D01*
X32302263Y20320566D01*
X32302261Y20320565D01*
X32302258Y20320563D01*
X32115862Y20190049D01*
X31954951Y20029138D01*
X31824437Y19842742D01*
X31824435Y19842739D01*
X31824434Y19842737D01*
X31824432Y19842734D01*
X31824313Y19842478D01*
X31728260Y19636493D01*
X31669365Y19416694D01*
X31649747Y19192456D01*
X31649532Y19190000D01*
X29180468Y19190000D01*
X29160635Y19416692D01*
X29101739Y19636496D01*
X29005568Y19842734D01*
X28875047Y20029139D01*
X28714139Y20190047D01*
X28714137Y20190049D01*
X28527741Y20320563D01*
X28527734Y20320568D01*
X28527732Y20320569D01*
X28518312Y20324962D01*
X28459230Y20374537D01*
X28432851Y20447014D01*
X28446244Y20522970D01*
X28495821Y20582054D01*
X28518311Y20595038D01*
X28527734Y20599432D01*
X28714139Y20729953D01*
X28875047Y20890861D01*
X29005568Y21077266D01*
X29101739Y21283504D01*
X29160635Y21503308D01*
X29180468Y21730000D01*
X29160635Y21956692D01*
X29101739Y22176496D01*
X29005568Y22382734D01*
X28875047Y22569139D01*
X28714139Y22730047D01*
X28714137Y22730049D01*
X28527741Y22860563D01*
X28527734Y22860568D01*
X28527732Y22860569D01*
X28518312Y22864962D01*
X28459230Y22914537D01*
X28432851Y22987014D01*
X28446244Y23062970D01*
X28495821Y23122054D01*
X28518311Y23135038D01*
X28527734Y23139432D01*
X28714139Y23269953D01*
X28875047Y23430861D01*
X29005568Y23617266D01*
X29101739Y23823504D01*
X29160635Y24043308D01*
X29180468Y24270000D01*
X29160635Y24496692D01*
X29101739Y24716496D01*
X29005568Y24922734D01*
X28906383Y25064386D01*
X28875048Y25109138D01*
X28714137Y25270049D01*
X28699931Y25279996D01*
X41695287Y25279996D01*
X41714096Y25077015D01*
X41714096Y25077012D01*
X41769885Y24880934D01*
X41800821Y24818805D01*
X41816158Y24743218D01*
X41791647Y24670088D01*
X41786723Y24663100D01*
X41756202Y24622329D01*
X41705908Y24487483D01*
X41699500Y24427886D01*
X41699500Y23132137D01*
X41699502Y23132112D01*
X41705908Y23072522D01*
X41705909Y23072516D01*
X41756202Y22937671D01*
X41756204Y22937667D01*
X41842452Y22822456D01*
X41842455Y22822453D01*
X41957666Y22736205D01*
X41957670Y22736203D01*
X42092517Y22685909D01*
X42152114Y22679501D01*
X42152118Y22679501D01*
X42152127Y22679500D01*
X43447872Y22679501D01*
X43507483Y22685909D01*
X43603447Y22721702D01*
X43642329Y22736203D01*
X43642333Y22736205D01*
X43699938Y22779329D01*
X43757546Y22822454D01*
X43800671Y22880062D01*
X43843795Y22937667D01*
X43843797Y22937671D01*
X43890530Y23062970D01*
X43894091Y23072517D01*
X43899697Y23124660D01*
X43900499Y23132115D01*
X43900499Y23132118D01*
X43900500Y23132127D01*
X43900499Y24130000D01*
X45984659Y24130000D01*
X46003976Y23933866D01*
X46061187Y23745269D01*
X46154083Y23571474D01*
X46154087Y23571468D01*
X46154090Y23571462D01*
X46279117Y23419117D01*
X46431462Y23294090D01*
X46431471Y23294085D01*
X46431473Y23294084D01*
X46605268Y23201188D01*
X46605270Y23201188D01*
X46605273Y23201186D01*
X46793868Y23143976D01*
X46990000Y23124659D01*
X47186132Y23143976D01*
X47374727Y23201186D01*
X47548538Y23294090D01*
X47700883Y23419117D01*
X47825910Y23571462D01*
X47918814Y23745273D01*
X47976024Y23933868D01*
X47995341Y24130000D01*
X47976024Y24326132D01*
X47918814Y24514727D01*
X47918813Y24514729D01*
X47918281Y24516014D01*
X47918171Y24516845D01*
X47916689Y24521732D01*
X47917495Y24521977D01*
X47908214Y24592482D01*
X47930540Y24647300D01*
X47928244Y24648554D01*
X47933353Y24657912D01*
X47983598Y24792623D01*
X47989998Y24852158D01*
X47990000Y24852178D01*
X47990000Y25150000D01*
X47235581Y25150000D01*
X47287060Y25205921D01*
X47333982Y25312892D01*
X47343628Y25429302D01*
X47314953Y25542538D01*
X47251064Y25640327D01*
X47158885Y25712072D01*
X47048405Y25750000D01*
X46960995Y25750000D01*
X46874784Y25735614D01*
X46772053Y25680019D01*
X46692940Y25594079D01*
X46646018Y25487108D01*
X46636372Y25370698D01*
X46665047Y25257462D01*
X46728936Y25159673D01*
X46741364Y25150000D01*
X45990000Y25150000D01*
X45990000Y24852178D01*
X45990001Y24852158D01*
X45996401Y24792623D01*
X46046644Y24657917D01*
X46051755Y24648558D01*
X46049373Y24647258D01*
X46072006Y24590731D01*
X46062541Y24521965D01*
X46063311Y24521731D01*
X46061843Y24516892D01*
X46061724Y24516027D01*
X46061188Y24514734D01*
X46003976Y24326135D01*
X45984659Y24130000D01*
X43900499Y24130000D01*
X43900499Y24427872D01*
X43894091Y24487483D01*
X43843797Y24622329D01*
X43843797Y24622330D01*
X43843794Y24622334D01*
X43813278Y24663099D01*
X43784612Y24734702D01*
X43795588Y24811045D01*
X43799180Y24818809D01*
X43830114Y24880932D01*
X43885903Y25077012D01*
X43885903Y25077015D01*
X43904713Y25279996D01*
X43904713Y25280005D01*
X43885903Y25482986D01*
X43838384Y25650000D01*
X45990000Y25650000D01*
X46740000Y25650000D01*
X46740000Y26400000D01*
X47240000Y26400000D01*
X47240000Y25650000D01*
X47990000Y25650000D01*
X47990000Y25947823D01*
X47989998Y25947843D01*
X47983598Y26007378D01*
X47933354Y26142085D01*
X47933349Y26142095D01*
X47847190Y26257188D01*
X47847187Y26257191D01*
X47732094Y26343350D01*
X47732084Y26343355D01*
X47597376Y26393599D01*
X47597378Y26393599D01*
X47537842Y26399999D01*
X47537823Y26400000D01*
X47240000Y26400000D01*
X46740000Y26400000D01*
X46442177Y26400000D01*
X46442157Y26399999D01*
X46382622Y26393599D01*
X46247915Y26343355D01*
X46247905Y26343350D01*
X46132812Y26257191D01*
X46132809Y26257188D01*
X46046650Y26142095D01*
X46046645Y26142085D01*
X45996401Y26007378D01*
X45990001Y25947843D01*
X45990000Y25947823D01*
X45990000Y25650000D01*
X43838384Y25650000D01*
X43830113Y25679070D01*
X43739247Y25861554D01*
X43739244Y25861559D01*
X43737465Y25863915D01*
X43095346Y25221796D01*
X43103895Y25251840D01*
X43093546Y25363521D01*
X43043552Y25463922D01*
X42960666Y25539484D01*
X42856080Y25580000D01*
X42772198Y25580000D01*
X42689750Y25564588D01*
X42594390Y25505543D01*
X42526799Y25416038D01*
X42496105Y25308160D01*
X42504052Y25222395D01*
X41862533Y25863914D01*
X41860754Y25861557D01*
X41860753Y25861556D01*
X41769886Y25679070D01*
X41714096Y25482986D01*
X41695287Y25280005D01*
X41695287Y25279996D01*
X28699931Y25279996D01*
X28527741Y25400563D01*
X28527734Y25400568D01*
X28527732Y25400569D01*
X28518312Y25404962D01*
X28459230Y25454537D01*
X28432851Y25527014D01*
X28446244Y25602970D01*
X28495821Y25662054D01*
X28518311Y25675038D01*
X28527734Y25679432D01*
X28714139Y25809953D01*
X28875047Y25970861D01*
X29005568Y26157266D01*
X29032137Y26214243D01*
X42219310Y26214243D01*
X42799999Y25633554D01*
X43380687Y26214242D01*
X43292414Y26268898D01*
X43102317Y26342542D01*
X42901934Y26380000D01*
X42698065Y26380000D01*
X42497682Y26342542D01*
X42307585Y26268898D01*
X42219310Y26214243D01*
X29032137Y26214243D01*
X29101739Y26363504D01*
X29160635Y26583308D01*
X29180468Y26810000D01*
X29160635Y27036692D01*
X29101739Y27256496D01*
X29005568Y27462734D01*
X28875047Y27649139D01*
X28714139Y27810047D01*
X28714137Y27810049D01*
X28527741Y27940563D01*
X28527738Y27940565D01*
X28527734Y27940568D01*
X28321496Y28036739D01*
X28101692Y28095635D01*
X28101693Y28095635D01*
X27875000Y28115468D01*
X27648306Y28095635D01*
X27428507Y28036740D01*
X27428506Y28036740D01*
X27428504Y28036739D01*
X27222266Y27940568D01*
X27222263Y27940566D01*
X27222261Y27940565D01*
X27222258Y27940563D01*
X27035862Y27810049D01*
X26874951Y27649138D01*
X26744437Y27462742D01*
X26744435Y27462739D01*
X26744434Y27462737D01*
X26744432Y27462734D01*
X26648261Y27256496D01*
X26648260Y27256493D01*
X26589365Y27036694D01*
X26573499Y26855348D01*
X26569532Y26810000D01*
X26589365Y26583308D01*
X26648261Y26363504D01*
X26744432Y26157266D01*
X26744435Y26157262D01*
X26744437Y26157259D01*
X26874951Y25970863D01*
X27035862Y25809952D01*
X27096249Y25767669D01*
X27222266Y25679432D01*
X27231685Y25675040D01*
X27231689Y25675038D01*
X27290771Y25625460D01*
X27317148Y25552982D01*
X27303753Y25477026D01*
X27254175Y25417944D01*
X27231689Y25404962D01*
X27222268Y25400569D01*
X27222258Y25400563D01*
X27035862Y25270049D01*
X26874951Y25109138D01*
X26744437Y24922742D01*
X26744435Y24922739D01*
X26744434Y24922737D01*
X26744432Y24922734D01*
X26648261Y24716496D01*
X26648260Y24716493D01*
X26589365Y24496694D01*
X26569532Y24270000D01*
X26587485Y24064790D01*
X26589365Y24043308D01*
X26648261Y23823504D01*
X26744432Y23617266D01*
X26744435Y23617262D01*
X26744437Y23617259D01*
X26874951Y23430863D01*
X26874953Y23430861D01*
X27035861Y23269953D01*
X27222266Y23139432D01*
X27231685Y23135040D01*
X27231689Y23135038D01*
X27290771Y23085460D01*
X27317148Y23012982D01*
X27303753Y22937026D01*
X27254175Y22877944D01*
X27231689Y22864962D01*
X27222268Y22860569D01*
X27222258Y22860563D01*
X27035862Y22730049D01*
X26874951Y22569138D01*
X26744437Y22382742D01*
X26744435Y22382739D01*
X26744434Y22382737D01*
X26744432Y22382734D01*
X26648261Y22176496D01*
X26648260Y22176493D01*
X26589365Y21956694D01*
X26583315Y21887545D01*
X26569532Y21730000D01*
X26589365Y21503308D01*
X26648261Y21283504D01*
X26744432Y21077266D01*
X26744435Y21077262D01*
X26744437Y21077259D01*
X26874951Y20890863D01*
X26874953Y20890861D01*
X27035861Y20729953D01*
X27222266Y20599432D01*
X27231685Y20595040D01*
X27231689Y20595038D01*
X27290771Y20545460D01*
X27317148Y20472982D01*
X27303753Y20397026D01*
X27254175Y20337944D01*
X27231689Y20324962D01*
X27222268Y20320569D01*
X27222258Y20320563D01*
X27035862Y20190049D01*
X26874951Y20029138D01*
X26744437Y19842742D01*
X26744435Y19842739D01*
X26744434Y19842737D01*
X26744432Y19842734D01*
X26744313Y19842478D01*
X26648260Y19636493D01*
X26589365Y19416694D01*
X26569747Y19192456D01*
X26569532Y19190000D01*
X20659986Y19190000D01*
X20640165Y19315148D01*
X20582641Y19428045D01*
X20570686Y19440000D01*
X21533872Y19440000D01*
X21533872Y19440001D01*
X21481267Y19636324D01*
X21481266Y19636326D01*
X21385137Y19842478D01*
X21385134Y19842483D01*
X21254660Y20028818D01*
X21093817Y20189661D01*
X20907482Y20320135D01*
X20907477Y20320138D01*
X20897724Y20324685D01*
X20838641Y20374262D01*
X20812261Y20446738D01*
X20825654Y20522695D01*
X20875231Y20581778D01*
X20897722Y20594764D01*
X20907734Y20599432D01*
X21094139Y20729953D01*
X21255047Y20890861D01*
X21385568Y21077266D01*
X21481739Y21283504D01*
X21540635Y21503308D01*
X21560468Y21730000D01*
X21540635Y21956692D01*
X21481739Y22176496D01*
X21385568Y22382734D01*
X21255047Y22569139D01*
X21094139Y22730047D01*
X21094137Y22730049D01*
X20907741Y22860563D01*
X20907734Y22860568D01*
X20907732Y22860569D01*
X20898312Y22864962D01*
X20839230Y22914537D01*
X20812851Y22987014D01*
X20826244Y23062970D01*
X20875821Y23122054D01*
X20898311Y23135038D01*
X20907734Y23139432D01*
X21094139Y23269953D01*
X21255047Y23430861D01*
X21385568Y23617266D01*
X21481739Y23823504D01*
X21540635Y24043308D01*
X21560468Y24270000D01*
X21540635Y24496692D01*
X21481739Y24716496D01*
X21385568Y24922734D01*
X21286383Y25064386D01*
X21255048Y25109138D01*
X21097256Y25266930D01*
X21058692Y25333725D01*
X21058692Y25410853D01*
X21097256Y25477648D01*
X21154482Y25510688D01*
X21153750Y25512652D01*
X21297329Y25566203D01*
X21297333Y25566205D01*
X21354938Y25609329D01*
X21412546Y25652454D01*
X21498796Y25767669D01*
X21549091Y25902517D01*
X21553964Y25947843D01*
X21555499Y25962115D01*
X21555499Y25962118D01*
X21555500Y25962127D01*
X21555499Y27657872D01*
X21549091Y27717483D01*
X21514567Y27810047D01*
X21498797Y27852330D01*
X21498795Y27852334D01*
X21412547Y27967545D01*
X21412544Y27967548D01*
X21297333Y28053796D01*
X21297329Y28053798D01*
X21162482Y28104092D01*
X21102876Y28110500D01*
X19407136Y28110500D01*
X19407111Y28110498D01*
X19347521Y28104092D01*
X19347515Y28104091D01*
X19212670Y28053798D01*
X19212666Y28053796D01*
X19097455Y27967548D01*
X19097452Y27967545D01*
X19011204Y27852334D01*
X19011202Y27852330D01*
X18960908Y27717483D01*
X18954500Y27657886D01*
X18954500Y25962137D01*
X18954502Y25962112D01*
X18960908Y25902522D01*
X18960909Y25902516D01*
X19011202Y25767671D01*
X19011204Y25767667D01*
X19097452Y25652456D01*
X19097455Y25652453D01*
X19212666Y25566205D01*
X19212670Y25566203D01*
X19356249Y25512652D01*
X19355249Y25509974D01*
X19409558Y25480739D01*
X19450095Y25415122D01*
X19452392Y25338028D01*
X19415834Y25270115D01*
X19412743Y25266930D01*
X19254951Y25109138D01*
X19124437Y24922742D01*
X19124435Y24922739D01*
X19124434Y24922737D01*
X19124432Y24922734D01*
X19028261Y24716496D01*
X19028260Y24716493D01*
X18969365Y24496694D01*
X18949532Y24270000D01*
X18967485Y24064790D01*
X18969365Y24043308D01*
X19028261Y23823504D01*
X19124432Y23617266D01*
X19124435Y23617262D01*
X19124437Y23617259D01*
X19254951Y23430863D01*
X19254953Y23430861D01*
X19415861Y23269953D01*
X19602266Y23139432D01*
X19611685Y23135040D01*
X19611689Y23135038D01*
X19670771Y23085460D01*
X19697148Y23012982D01*
X19683753Y22937026D01*
X19634175Y22877944D01*
X19611689Y22864962D01*
X19602268Y22860569D01*
X19602258Y22860563D01*
X19415862Y22730049D01*
X19254951Y22569138D01*
X19124437Y22382742D01*
X19124435Y22382739D01*
X19124434Y22382737D01*
X19124432Y22382734D01*
X19028261Y22176496D01*
X19028260Y22176493D01*
X18969365Y21956694D01*
X18963315Y21887545D01*
X18949532Y21730000D01*
X11264585Y21730000D01*
X11248797Y21772330D01*
X11248795Y21772334D01*
X11162547Y21887545D01*
X11162544Y21887548D01*
X11047333Y21973796D01*
X11047329Y21973798D01*
X10912482Y22024092D01*
X10852876Y22030500D01*
X6797136Y22030500D01*
X6797111Y22030498D01*
X6737521Y22024092D01*
X6737515Y22024091D01*
X6602670Y21973798D01*
X6602666Y21973796D01*
X6487455Y21887548D01*
X6487452Y21887545D01*
X6401204Y21772334D01*
X6401202Y21772330D01*
X6350908Y21637483D01*
X6344500Y21577886D01*
X6344500Y19502137D01*
X500500Y19502137D01*
X500500Y25416494D01*
X6344500Y25416494D01*
X6385157Y25172850D01*
X6385158Y25172847D01*
X6465362Y24939220D01*
X6465364Y24939216D01*
X6582923Y24721987D01*
X6582930Y24721976D01*
X6734640Y24527057D01*
X6734642Y24527055D01*
X6734644Y24527053D01*
X6734645Y24527052D01*
X6748034Y24514727D01*
X6916376Y24359757D01*
X6916378Y24359756D01*
X6916379Y24359755D01*
X7123169Y24224652D01*
X7123174Y24224650D01*
X7349374Y24125429D01*
X7349375Y24125429D01*
X7349377Y24125428D01*
X7588831Y24064790D01*
X7773355Y24049500D01*
X7773360Y24049500D01*
X9876640Y24049500D01*
X9876645Y24049500D01*
X10061169Y24064790D01*
X10300623Y24125428D01*
X10526831Y24224652D01*
X10733621Y24359755D01*
X10915355Y24527052D01*
X11067073Y24721980D01*
X11184638Y24939221D01*
X11264843Y25172850D01*
X11305500Y25416494D01*
X11305500Y25663506D01*
X11264843Y25907150D01*
X11184638Y26140779D01*
X11175719Y26157259D01*
X11067076Y26358014D01*
X11067073Y26358020D01*
X11034399Y26400000D01*
X10915359Y26552944D01*
X10915357Y26552946D01*
X10733623Y26720244D01*
X10683556Y26752954D01*
X10526831Y26855348D01*
X10526826Y26855350D01*
X10526825Y26855351D01*
X10300625Y26954572D01*
X10205808Y26978583D01*
X10061169Y27015210D01*
X10061164Y27015211D01*
X10061166Y27015211D01*
X9942222Y27025067D01*
X9876645Y27030500D01*
X7773355Y27030500D01*
X7702759Y27024651D01*
X7588835Y27015211D01*
X7349374Y26954572D01*
X7123174Y26855351D01*
X7123171Y26855349D01*
X6916376Y26720244D01*
X6734642Y26552946D01*
X6734640Y26552944D01*
X6582930Y26358025D01*
X6582923Y26358014D01*
X6465364Y26140785D01*
X6465362Y26140781D01*
X6404025Y25962112D01*
X6385157Y25907150D01*
X6344500Y25663506D01*
X6344500Y25416494D01*
X500500Y25416494D01*
X500500Y31750000D01*
X21554532Y31750000D01*
X21574365Y31523308D01*
X21633261Y31303504D01*
X21729432Y31097266D01*
X21729435Y31097262D01*
X21729437Y31097259D01*
X21859951Y30910863D01*
X21859953Y30910861D01*
X22020861Y30749953D01*
X22207266Y30619432D01*
X22413504Y30523261D01*
X22633308Y30464365D01*
X22860000Y30444532D01*
X23086692Y30464365D01*
X23306496Y30523261D01*
X23512734Y30619432D01*
X23699139Y30749953D01*
X23860047Y30910861D01*
X23990568Y31097266D01*
X24086739Y31303504D01*
X24145635Y31523308D01*
X24165468Y31750000D01*
X31714532Y31750000D01*
X31734365Y31523308D01*
X31793261Y31303504D01*
X31889432Y31097266D01*
X31889435Y31097262D01*
X31889437Y31097259D01*
X32019951Y30910863D01*
X32019953Y30910861D01*
X32180861Y30749953D01*
X32367266Y30619432D01*
X32573504Y30523261D01*
X32793308Y30464365D01*
X33020000Y30444532D01*
X33246692Y30464365D01*
X33466496Y30523261D01*
X33672734Y30619432D01*
X33859139Y30749953D01*
X34020047Y30910861D01*
X34150568Y31097266D01*
X34246739Y31303504D01*
X34305635Y31523308D01*
X34325468Y31750000D01*
X34305635Y31976692D01*
X34246739Y32196496D01*
X34150568Y32402734D01*
X34020047Y32589139D01*
X33859139Y32750047D01*
X33859137Y32750049D01*
X33672741Y32880563D01*
X33672738Y32880565D01*
X33672734Y32880568D01*
X33466496Y32976739D01*
X33305043Y33020000D01*
X37094659Y33020000D01*
X37113976Y32823866D01*
X37171187Y32635269D01*
X37264083Y32461474D01*
X37264087Y32461468D01*
X37264090Y32461462D01*
X37389117Y32309117D01*
X37541462Y32184090D01*
X37541471Y32184085D01*
X37541473Y32184084D01*
X37715268Y32091188D01*
X37715270Y32091188D01*
X37715273Y32091186D01*
X37903868Y32033976D01*
X38100000Y32014659D01*
X38296132Y32033976D01*
X38484727Y32091186D01*
X38484746Y32091197D01*
X38485993Y32091712D01*
X38486820Y32091822D01*
X38491732Y32093311D01*
X38491977Y32092501D01*
X38562459Y32101790D01*
X38617299Y32079459D01*
X38618554Y32081756D01*
X38627911Y32076647D01*
X38762623Y32026402D01*
X38762621Y32026402D01*
X38822157Y32020002D01*
X38822177Y32020000D01*
X39120000Y32020000D01*
X39120000Y32812328D01*
X39157871Y32767195D01*
X39257129Y32709888D01*
X39341564Y32695000D01*
X39398436Y32695000D01*
X39482871Y32709888D01*
X39582129Y32767195D01*
X39584483Y32770000D01*
X39620000Y32770000D01*
X39620000Y32020000D01*
X39917823Y32020000D01*
X39917842Y32020002D01*
X39977377Y32026402D01*
X40112084Y32076646D01*
X40112094Y32076651D01*
X40227187Y32162810D01*
X40227190Y32162813D01*
X40313349Y32277906D01*
X40313354Y32277916D01*
X40363598Y32412623D01*
X40369998Y32472158D01*
X40370000Y32472178D01*
X40370000Y32770000D01*
X39620000Y32770000D01*
X39584483Y32770000D01*
X39655801Y32854993D01*
X39695000Y32962694D01*
X39695000Y33077306D01*
X39655801Y33185007D01*
X39582129Y33272805D01*
X39482871Y33330112D01*
X39398436Y33345000D01*
X39341564Y33345000D01*
X39257129Y33330112D01*
X39157871Y33272805D01*
X39120000Y33227673D01*
X39120000Y34020000D01*
X39620000Y34020000D01*
X39620000Y33270000D01*
X40370000Y33270000D01*
X40370000Y33567823D01*
X40369998Y33567843D01*
X40363598Y33627378D01*
X40313354Y33762085D01*
X40313349Y33762095D01*
X40227190Y33877188D01*
X40227187Y33877191D01*
X40112094Y33963350D01*
X40112084Y33963355D01*
X39977376Y34013599D01*
X39977378Y34013599D01*
X39917842Y34019999D01*
X39917823Y34020000D01*
X39620000Y34020000D01*
X39120000Y34020000D01*
X38822177Y34020000D01*
X38822157Y34019999D01*
X38762622Y34013599D01*
X38627915Y33963355D01*
X38618553Y33958243D01*
X38617254Y33960622D01*
X38560695Y33937990D01*
X38491964Y33947459D01*
X38491731Y33946689D01*
X38486891Y33948158D01*
X38486028Y33948276D01*
X38484736Y33948811D01*
X38484728Y33948814D01*
X38484727Y33948814D01*
X38426671Y33966425D01*
X38296134Y34006024D01*
X38100000Y34025341D01*
X37903865Y34006024D01*
X37715268Y33948813D01*
X37541473Y33855917D01*
X37541465Y33855912D01*
X37541463Y33855911D01*
X37541462Y33855910D01*
X37389117Y33730883D01*
X37377399Y33716604D01*
X37264088Y33578535D01*
X37264083Y33578527D01*
X37171187Y33404732D01*
X37113976Y33216135D01*
X37094659Y33020000D01*
X33305043Y33020000D01*
X33246692Y33035635D01*
X33246693Y33035635D01*
X33020000Y33055468D01*
X32793306Y33035635D01*
X32573507Y32976740D01*
X32573506Y32976740D01*
X32573504Y32976739D01*
X32367266Y32880568D01*
X32367263Y32880566D01*
X32367261Y32880565D01*
X32367258Y32880563D01*
X32180862Y32750049D01*
X32019951Y32589138D01*
X31889437Y32402742D01*
X31889435Y32402739D01*
X31889434Y32402737D01*
X31889432Y32402734D01*
X31793261Y32196496D01*
X31793260Y32196493D01*
X31734365Y31976694D01*
X31734365Y31976692D01*
X31714532Y31750000D01*
X24165468Y31750000D01*
X24145635Y31976692D01*
X24086739Y32196496D01*
X23990568Y32402734D01*
X23860047Y32589139D01*
X23699139Y32750047D01*
X23699137Y32750049D01*
X23512741Y32880563D01*
X23512738Y32880565D01*
X23512734Y32880568D01*
X23306496Y32976739D01*
X23086692Y33035635D01*
X23086693Y33035635D01*
X22860000Y33055468D01*
X22633306Y33035635D01*
X22413507Y32976740D01*
X22413506Y32976740D01*
X22413504Y32976739D01*
X22207266Y32880568D01*
X22207263Y32880566D01*
X22207261Y32880565D01*
X22207258Y32880563D01*
X22020862Y32750049D01*
X21859951Y32589138D01*
X21729437Y32402742D01*
X21729435Y32402739D01*
X21729434Y32402737D01*
X21729432Y32402734D01*
X21633261Y32196496D01*
X21633260Y32196493D01*
X21574365Y31976694D01*
X21574365Y31976692D01*
X21554532Y31750000D01*
X500500Y31750000D01*
X500500Y35029995D01*
X5044390Y35029995D01*
X5064802Y34744583D01*
X5064804Y34744573D01*
X5125629Y34464960D01*
X5225633Y34196838D01*
X5362771Y33945688D01*
X5466128Y33807620D01*
X5534261Y33716605D01*
X5736605Y33514261D01*
X5873641Y33411677D01*
X5965687Y33342772D01*
X6216837Y33205634D01*
X6216839Y33205633D01*
X6484954Y33105631D01*
X6764572Y33044804D01*
X6764579Y33044804D01*
X6764582Y33044803D01*
X7049995Y33024390D01*
X7050000Y33024390D01*
X7050005Y33024390D01*
X7335417Y33044803D01*
X7335418Y33044804D01*
X7335428Y33044804D01*
X7615046Y33105631D01*
X7883161Y33205633D01*
X8022911Y33281943D01*
X8134312Y33342772D01*
X8134315Y33342774D01*
X8363395Y33514261D01*
X8565739Y33716605D01*
X8737226Y33945685D01*
X8737775Y33946689D01*
X8874366Y34196838D01*
X8874367Y34196839D01*
X8974369Y34464954D01*
X9035196Y34744572D01*
X9041664Y34835007D01*
X9055610Y35029995D01*
X9055610Y35030006D01*
X9035197Y35315418D01*
X9035196Y35315421D01*
X9035196Y35315428D01*
X8981993Y35560000D01*
X13934532Y35560000D01*
X13954365Y35333307D01*
X13983388Y35224993D01*
X14013261Y35113504D01*
X14109432Y34907266D01*
X14109435Y34907262D01*
X14109437Y34907259D01*
X14239951Y34720863D01*
X14239953Y34720861D01*
X14400861Y34559953D01*
X14587266Y34429432D01*
X14793504Y34333261D01*
X15013308Y34274365D01*
X15240000Y34254532D01*
X15466692Y34274365D01*
X15686496Y34333261D01*
X15892734Y34429432D01*
X16079139Y34559953D01*
X16240047Y34720861D01*
X16370568Y34907266D01*
X16466739Y35113504D01*
X16525635Y35333308D01*
X16545468Y35560000D01*
X24094532Y35560000D01*
X24114365Y35333307D01*
X24143388Y35224993D01*
X24173261Y35113504D01*
X24269432Y34907266D01*
X24269435Y34907262D01*
X24269437Y34907259D01*
X24399951Y34720863D01*
X24399953Y34720861D01*
X24560861Y34559953D01*
X24747266Y34429432D01*
X24953504Y34333261D01*
X25173308Y34274365D01*
X25400000Y34254532D01*
X25626692Y34274365D01*
X25846496Y34333261D01*
X26052734Y34429432D01*
X26239139Y34559953D01*
X26400047Y34720861D01*
X26530568Y34907266D01*
X26587798Y35029995D01*
X45044390Y35029995D01*
X45064802Y34744583D01*
X45064804Y34744573D01*
X45125629Y34464960D01*
X45225633Y34196838D01*
X45362771Y33945688D01*
X45466128Y33807620D01*
X45534261Y33716605D01*
X45736605Y33514261D01*
X45873641Y33411677D01*
X45965687Y33342772D01*
X46216837Y33205634D01*
X46216839Y33205633D01*
X46484954Y33105631D01*
X46764572Y33044804D01*
X46764579Y33044804D01*
X46764582Y33044803D01*
X47049995Y33024390D01*
X47050000Y33024390D01*
X47050005Y33024390D01*
X47335417Y33044803D01*
X47335418Y33044804D01*
X47335428Y33044804D01*
X47615046Y33105631D01*
X47883161Y33205633D01*
X48022911Y33281943D01*
X48134312Y33342772D01*
X48134315Y33342774D01*
X48363395Y33514261D01*
X48565739Y33716605D01*
X48737226Y33945685D01*
X48737775Y33946689D01*
X48874366Y34196838D01*
X48874367Y34196839D01*
X48974369Y34464954D01*
X49035196Y34744572D01*
X49041664Y34835007D01*
X49055610Y35029995D01*
X49055610Y35030006D01*
X49035197Y35315418D01*
X49035196Y35315421D01*
X49035196Y35315428D01*
X48974369Y35595046D01*
X48874367Y35863161D01*
X48825083Y35953418D01*
X48737228Y36114313D01*
X48668323Y36206359D01*
X48565739Y36343395D01*
X48363395Y36545739D01*
X48169933Y36690563D01*
X48134312Y36717229D01*
X47883162Y36854367D01*
X47719454Y36915427D01*
X47615046Y36954369D01*
X47615044Y36954370D01*
X47615040Y36954371D01*
X47402098Y37000693D01*
X47335428Y37015196D01*
X47335426Y37015197D01*
X47335417Y37015198D01*
X47050005Y37035610D01*
X47049995Y37035610D01*
X46764582Y37015198D01*
X46764572Y37015196D01*
X46484959Y36954371D01*
X46216837Y36854367D01*
X45965687Y36717229D01*
X45736606Y36545740D01*
X45534260Y36343394D01*
X45362771Y36114313D01*
X45225633Y35863163D01*
X45125629Y35595041D01*
X45064804Y35315428D01*
X45064802Y35315418D01*
X45044390Y35030006D01*
X45044390Y35029995D01*
X26587798Y35029995D01*
X26626739Y35113504D01*
X26685635Y35333308D01*
X26705468Y35560000D01*
X26685635Y35786692D01*
X26626739Y36006496D01*
X26530568Y36212734D01*
X26400047Y36399139D01*
X26239139Y36560047D01*
X26239137Y36560049D01*
X26052741Y36690563D01*
X26052738Y36690565D01*
X26052734Y36690568D01*
X25846496Y36786739D01*
X25626692Y36845635D01*
X25626693Y36845635D01*
X25400000Y36865468D01*
X25173306Y36845635D01*
X24953507Y36786740D01*
X24953506Y36786740D01*
X24953504Y36786739D01*
X24747266Y36690568D01*
X24747263Y36690566D01*
X24747261Y36690565D01*
X24747258Y36690563D01*
X24560862Y36560049D01*
X24399951Y36399138D01*
X24269437Y36212742D01*
X24269435Y36212739D01*
X24269434Y36212737D01*
X24269432Y36212734D01*
X24183988Y36029500D01*
X24173260Y36006493D01*
X24114365Y35786694D01*
X24094532Y35560000D01*
X16545468Y35560000D01*
X16525635Y35786692D01*
X16466739Y36006496D01*
X16370568Y36212734D01*
X16240047Y36399139D01*
X16079139Y36560047D01*
X16079137Y36560049D01*
X15892741Y36690563D01*
X15892738Y36690565D01*
X15892734Y36690568D01*
X15686496Y36786739D01*
X15466692Y36845635D01*
X15466693Y36845635D01*
X15240000Y36865468D01*
X15013306Y36845635D01*
X14793507Y36786740D01*
X14793506Y36786740D01*
X14793504Y36786739D01*
X14587266Y36690568D01*
X14587263Y36690566D01*
X14587261Y36690565D01*
X14587258Y36690563D01*
X14400862Y36560049D01*
X14239951Y36399138D01*
X14109437Y36212742D01*
X14109435Y36212739D01*
X14109434Y36212737D01*
X14109432Y36212734D01*
X14023988Y36029500D01*
X14013260Y36006493D01*
X13954365Y35786694D01*
X13934532Y35560000D01*
X8981993Y35560000D01*
X8974369Y35595046D01*
X8874367Y35863161D01*
X8825083Y35953418D01*
X8737228Y36114313D01*
X8668323Y36206359D01*
X8565739Y36343395D01*
X8363395Y36545739D01*
X8169933Y36690563D01*
X8134312Y36717229D01*
X7883162Y36854367D01*
X7719454Y36915427D01*
X7615046Y36954369D01*
X7615044Y36954370D01*
X7615040Y36954371D01*
X7402098Y37000693D01*
X7335428Y37015196D01*
X7335426Y37015197D01*
X7335417Y37015198D01*
X7050005Y37035610D01*
X7049995Y37035610D01*
X6764582Y37015198D01*
X6764572Y37015196D01*
X6484959Y36954371D01*
X6216837Y36854367D01*
X5965687Y36717229D01*
X5736606Y36545740D01*
X5534260Y36343394D01*
X5362771Y36114313D01*
X5225633Y35863163D01*
X5125629Y35595041D01*
X5064804Y35315428D01*
X5064802Y35315418D01*
X5044390Y35030006D01*
X5044390Y35029995D01*
X500500Y35029995D01*
X500500Y39990500D01*
X520462Y40065000D01*
X575000Y40119538D01*
X649500Y40139500D01*
X51420500Y40139500D01*
X51495000Y40119538D01*
G37*
%TD.AperFunction*%
%TD*%
M02*
