%TF.GenerationSoftware,KiCad,Pcbnew,7.0.9*%
%TF.CreationDate,2023-12-14T14:42:03+01:00*%
%TF.ProjectId,Group15_AMP,47726f75-7031-4355-9f41-4d502e6b6963,00*%
%TF.SameCoordinates,PX66f2fb0PY6bcb370*%
%TF.FileFunction,Copper,L2,Bot*%
%TF.FilePolarity,Positive*%
%FSLAX46Y46*%
G04 Gerber Fmt 4.6, Leading zero omitted, Abs format (unit mm)*
G04 Created by KiCad (PCBNEW 7.0.9) date 2023-12-14 14:42:03*
%MOMM*%
%LPD*%
G01*
G04 APERTURE LIST*
%TA.AperFunction,ComponentPad*%
%ADD10R,1.200000X1.200000*%
%TD*%
%TA.AperFunction,ComponentPad*%
%ADD11C,1.200000*%
%TD*%
%TA.AperFunction,ComponentPad*%
%ADD12R,3.960000X1.980000*%
%TD*%
%TA.AperFunction,ComponentPad*%
%ADD13O,3.960000X1.980000*%
%TD*%
%TA.AperFunction,ComponentPad*%
%ADD14R,1.980000X3.960000*%
%TD*%
%TA.AperFunction,ComponentPad*%
%ADD15O,1.980000X3.960000*%
%TD*%
%TA.AperFunction,ComponentPad*%
%ADD16C,1.600000*%
%TD*%
%TA.AperFunction,ComponentPad*%
%ADD17O,1.600000X1.600000*%
%TD*%
%TA.AperFunction,ComponentPad*%
%ADD18R,1.000000X1.000000*%
%TD*%
%TA.AperFunction,ComponentPad*%
%ADD19O,1.000000X1.000000*%
%TD*%
%TA.AperFunction,ComponentPad*%
%ADD20R,1.600000X1.600000*%
%TD*%
%TA.AperFunction,Conductor*%
%ADD21C,0.500000*%
%TD*%
%TA.AperFunction,Conductor*%
%ADD22C,0.200000*%
%TD*%
G04 APERTURE END LIST*
D10*
%TO.P,C1,1*%
%TO.N,IN3.3*%
X42800000Y23780000D03*
D11*
%TO.P,C1,2*%
%TO.N,GND*%
X42800000Y25280000D03*
%TD*%
D12*
%TO.P,J1,1,Pin_1*%
%TO.N,/Vin+*%
X8825000Y20540000D03*
D13*
%TO.P,J1,2,Pin_2*%
%TO.N,/Vin-*%
X8825000Y25540000D03*
%TD*%
D14*
%TO.P,J3,1,Pin_1*%
%TO.N,GND*%
X21300000Y9030000D03*
D15*
%TO.P,J3,2,Pin_2*%
%TO.N,IN3.3*%
X26300000Y9030000D03*
%TD*%
D16*
%TO.P,R2,1*%
%TO.N,Net-(Ina122-Pad5)*%
X32955000Y19190000D03*
D17*
%TO.P,R2,2*%
%TO.N,GND*%
X43115000Y19190000D03*
%TD*%
D18*
%TO.P,J4,1,Pin_1*%
%TO.N,GND*%
X39370000Y33020000D03*
D19*
%TO.P,J4,2,Pin_2*%
%TO.N,/Vo*%
X38100000Y33020000D03*
%TD*%
D18*
%TO.P,J2,1,Pin_1*%
%TO.N,GND*%
X46990000Y25400000D03*
D19*
%TO.P,J2,2,Pin_2*%
%TO.N,IN3.3*%
X46990000Y24130000D03*
%TD*%
D16*
%TO.P,RG1,1*%
%TO.N,Net-(RG1-Pad1)*%
X25400000Y35560000D03*
D17*
%TO.P,RG1,2*%
%TO.N,Net-(Ina122-Pad1)*%
X15240000Y35560000D03*
%TD*%
D16*
%TO.P,RG2,1*%
%TO.N,Net-(Ina122-Pad8)*%
X33020000Y31750000D03*
D17*
%TO.P,RG2,2*%
%TO.N,Net-(RG1-Pad1)*%
X22860000Y31750000D03*
%TD*%
D16*
%TO.P,R1,1*%
%TO.N,IN3.3*%
X43115000Y14110000D03*
D17*
%TO.P,R1,2*%
%TO.N,Net-(Ina122-Pad5)*%
X32955000Y14110000D03*
%TD*%
D20*
%TO.P,Ina122,1*%
%TO.N,Net-(Ina122-Pad1)*%
X20255000Y26810000D03*
D17*
%TO.P,Ina122,2*%
%TO.N,/Vin-*%
X20255000Y24270000D03*
%TO.P,Ina122,3*%
%TO.N,/Vin+*%
X20255000Y21730000D03*
%TO.P,Ina122,4*%
%TO.N,GND*%
X20255000Y19190000D03*
%TO.P,Ina122,5*%
%TO.N,Net-(Ina122-Pad5)*%
X27875000Y19190000D03*
%TO.P,Ina122,6*%
%TO.N,/Vo*%
X27875000Y21730000D03*
%TO.P,Ina122,7*%
%TO.N,IN3.3*%
X27875000Y24270000D03*
%TO.P,Ina122,8*%
%TO.N,Net-(Ina122-Pad8)*%
X27875000Y26810000D03*
%TD*%
D21*
%TO.N,IN3.3*%
X43300000Y24030000D02*
X46890000Y24030000D01*
D22*
X46890000Y24030000D02*
X46990000Y24130000D01*
D21*
X24065000Y20460000D02*
X24065000Y19780000D01*
X39370000Y10160000D02*
X26365000Y10160000D01*
X46990000Y17780000D02*
X46990000Y24130000D01*
X26300000Y10300000D02*
X26300000Y14415000D01*
X43180000Y13970000D02*
X46990000Y17780000D01*
X24065000Y16650000D02*
X24065000Y19780000D01*
X26300000Y14415000D02*
X24065000Y16650000D01*
X43180000Y13970000D02*
X39370000Y10160000D01*
X27875000Y24270000D02*
X24065000Y20460000D01*
X27400000Y24130000D02*
X27940000Y24130000D01*
%TO.N,Net-(Ina122-Pad1)*%
X20320000Y30480000D02*
X15240000Y35560000D01*
X20320000Y26670000D02*
X20320000Y30480000D01*
%TO.N,/Vin-*%
X20320000Y24130000D02*
X10160000Y24130000D01*
X10160000Y24130000D02*
X8890000Y25400000D01*
%TO.N,/Vin+*%
X10080000Y21590000D02*
X8890000Y20400000D01*
X20320000Y21590000D02*
X10080000Y21590000D01*
%TO.N,/Vo*%
X38100000Y31750000D02*
X38100000Y33020000D01*
X27940000Y21590000D02*
X38100000Y31750000D01*
%TO.N,Net-(Ina122-Pad5)*%
X33020000Y13970000D02*
X33020000Y19050000D01*
X27875000Y19190000D02*
X32955000Y19190000D01*
%TO.N,Net-(RG1-Pad1)*%
X22860000Y31750000D02*
X22860000Y33020000D01*
X22860000Y33020000D02*
X25400000Y35560000D01*
%TO.N,Net-(Ina122-Pad8)*%
X33020000Y31750000D02*
X27940000Y26670000D01*
%TD*%
%TA.AperFunction,Conductor*%
%TO.N,GND*%
G36*
X51512539Y40119815D02*
G01*
X51558294Y40067011D01*
X51569500Y40015500D01*
X51569500Y624500D01*
X51549815Y557461D01*
X51497011Y511706D01*
X51445500Y500500D01*
X624500Y500500D01*
X557461Y520185D01*
X511706Y572989D01*
X500500Y624500D01*
X500500Y5029999D01*
X5044390Y5029999D01*
X5064804Y4744567D01*
X5125628Y4464963D01*
X5225635Y4196834D01*
X5362770Y3945691D01*
X5362775Y3945683D01*
X5534254Y3716613D01*
X5534270Y3716595D01*
X5736594Y3514271D01*
X5736612Y3514255D01*
X5965682Y3342776D01*
X5965690Y3342771D01*
X6216833Y3205636D01*
X6216832Y3205636D01*
X6216836Y3205635D01*
X6216839Y3205633D01*
X6484954Y3105631D01*
X6484960Y3105630D01*
X6484962Y3105629D01*
X6764566Y3044805D01*
X6764568Y3044805D01*
X6764572Y3044804D01*
X7018220Y3026663D01*
X7049999Y3024390D01*
X7050000Y3024390D01*
X7050001Y3024390D01*
X7078595Y3026436D01*
X7335428Y3044804D01*
X7615046Y3105631D01*
X7883161Y3205633D01*
X8134315Y3342774D01*
X8363395Y3514261D01*
X8565739Y3716605D01*
X8737226Y3945685D01*
X8874367Y4196839D01*
X8974369Y4464954D01*
X9035196Y4744572D01*
X9055610Y5029999D01*
X45044390Y5029999D01*
X45064804Y4744567D01*
X45125628Y4464963D01*
X45225635Y4196834D01*
X45362770Y3945691D01*
X45362775Y3945683D01*
X45534254Y3716613D01*
X45534270Y3716595D01*
X45736594Y3514271D01*
X45736612Y3514255D01*
X45965682Y3342776D01*
X45965690Y3342771D01*
X46216833Y3205636D01*
X46216832Y3205636D01*
X46216836Y3205635D01*
X46216839Y3205633D01*
X46484954Y3105631D01*
X46484960Y3105630D01*
X46484962Y3105629D01*
X46764566Y3044805D01*
X46764568Y3044805D01*
X46764572Y3044804D01*
X47018220Y3026663D01*
X47049999Y3024390D01*
X47050000Y3024390D01*
X47050001Y3024390D01*
X47078595Y3026436D01*
X47335428Y3044804D01*
X47615046Y3105631D01*
X47883161Y3205633D01*
X48134315Y3342774D01*
X48363395Y3514261D01*
X48565739Y3716605D01*
X48737226Y3945685D01*
X48874367Y4196839D01*
X48974369Y4464954D01*
X49035196Y4744572D01*
X49055610Y5030000D01*
X49035196Y5315428D01*
X48974369Y5595046D01*
X48874367Y5863161D01*
X48794025Y6010295D01*
X48737229Y6114310D01*
X48737224Y6114318D01*
X48565745Y6343388D01*
X48565729Y6343406D01*
X48363405Y6545730D01*
X48363387Y6545746D01*
X48134317Y6717225D01*
X48134309Y6717230D01*
X47883166Y6854365D01*
X47883167Y6854365D01*
X47775915Y6894368D01*
X47615046Y6954369D01*
X47615043Y6954370D01*
X47615037Y6954372D01*
X47335433Y7015196D01*
X47050001Y7035610D01*
X47049999Y7035610D01*
X46764566Y7015196D01*
X46484962Y6954372D01*
X46216833Y6854365D01*
X45965690Y6717230D01*
X45965682Y6717225D01*
X45736612Y6545746D01*
X45736594Y6545730D01*
X45534270Y6343406D01*
X45534254Y6343388D01*
X45362775Y6114318D01*
X45362770Y6114310D01*
X45225635Y5863167D01*
X45125628Y5595038D01*
X45064804Y5315434D01*
X45044390Y5030002D01*
X45044390Y5029999D01*
X9055610Y5029999D01*
X9055610Y5030000D01*
X9035196Y5315428D01*
X8974369Y5595046D01*
X8874367Y5863161D01*
X8794025Y6010295D01*
X8737229Y6114310D01*
X8737224Y6114318D01*
X8565745Y6343388D01*
X8565729Y6343406D01*
X8363405Y6545730D01*
X8363387Y6545746D01*
X8134317Y6717225D01*
X8134309Y6717230D01*
X7883166Y6854365D01*
X7883167Y6854365D01*
X7775915Y6894368D01*
X7615046Y6954369D01*
X7615043Y6954370D01*
X7615037Y6954372D01*
X7395377Y7002156D01*
X19810000Y7002156D01*
X19816401Y6942628D01*
X19816403Y6942621D01*
X19866645Y6807914D01*
X19866649Y6807907D01*
X19952809Y6692813D01*
X19952812Y6692810D01*
X20067906Y6606650D01*
X20067913Y6606646D01*
X20202620Y6556404D01*
X20202627Y6556402D01*
X20262155Y6550001D01*
X20262172Y6550000D01*
X21050000Y6550000D01*
X21050000Y8418943D01*
X21140892Y8384472D01*
X21260081Y8370000D01*
X21339919Y8370000D01*
X21459108Y8384472D01*
X21550000Y8418943D01*
X21550000Y6550000D01*
X22337828Y6550000D01*
X22337844Y6550001D01*
X22397372Y6556402D01*
X22397379Y6556404D01*
X22532086Y6606646D01*
X22532093Y6606650D01*
X22647187Y6692810D01*
X22647190Y6692813D01*
X22733350Y6807907D01*
X22733354Y6807914D01*
X22783596Y6942621D01*
X22783598Y6942628D01*
X22789999Y7002156D01*
X22790000Y7002173D01*
X22790000Y8780000D01*
X21914168Y8780000D01*
X21921643Y8794242D01*
X21960000Y8949862D01*
X21960000Y9110138D01*
X21921643Y9265758D01*
X21914168Y9280000D01*
X22790000Y9280000D01*
X22790000Y11057828D01*
X22789999Y11057845D01*
X22783598Y11117373D01*
X22783596Y11117380D01*
X22733354Y11252087D01*
X22733350Y11252094D01*
X22647190Y11367188D01*
X22647187Y11367191D01*
X22532093Y11453351D01*
X22532086Y11453355D01*
X22397379Y11503597D01*
X22397372Y11503599D01*
X22337844Y11510000D01*
X21550000Y11510000D01*
X21550000Y9641058D01*
X21459108Y9675528D01*
X21339919Y9690000D01*
X21260081Y9690000D01*
X21140892Y9675528D01*
X21050000Y9641058D01*
X21050000Y11510000D01*
X20262155Y11510000D01*
X20202627Y11503599D01*
X20202620Y11503597D01*
X20067913Y11453355D01*
X20067906Y11453351D01*
X19952812Y11367191D01*
X19952809Y11367188D01*
X19866649Y11252094D01*
X19866645Y11252087D01*
X19816403Y11117380D01*
X19816401Y11117373D01*
X19810000Y11057845D01*
X19810000Y9280000D01*
X20685832Y9280000D01*
X20678357Y9265758D01*
X20640000Y9110138D01*
X20640000Y8949862D01*
X20678357Y8794242D01*
X20685832Y8780000D01*
X19810000Y8780000D01*
X19810000Y7002156D01*
X7395377Y7002156D01*
X7335433Y7015196D01*
X7050001Y7035610D01*
X7049999Y7035610D01*
X6764566Y7015196D01*
X6484962Y6954372D01*
X6216833Y6854365D01*
X5965690Y6717230D01*
X5965682Y6717225D01*
X5736612Y6545746D01*
X5736594Y6545730D01*
X5534270Y6343406D01*
X5534254Y6343388D01*
X5362775Y6114318D01*
X5362770Y6114310D01*
X5225635Y5863167D01*
X5125628Y5595038D01*
X5064804Y5315434D01*
X5044390Y5030002D01*
X5044390Y5029999D01*
X500500Y5029999D01*
X500500Y16671975D01*
X23309710Y16671975D01*
X23314264Y16619936D01*
X23314500Y16614530D01*
X23314500Y16606291D01*
X23318306Y16573726D01*
X23325000Y16497209D01*
X23326461Y16490133D01*
X23326403Y16490122D01*
X23328034Y16482763D01*
X23328092Y16482776D01*
X23329757Y16475750D01*
X23356025Y16403576D01*
X23380185Y16330669D01*
X23383236Y16324126D01*
X23383182Y16324102D01*
X23386470Y16317312D01*
X23386521Y16317337D01*
X23389761Y16310887D01*
X23389762Y16310886D01*
X23389763Y16310883D01*
X23431965Y16246717D01*
X23472287Y16181345D01*
X23476766Y16175681D01*
X23476719Y16175644D01*
X23481482Y16169798D01*
X23481528Y16169836D01*
X23486173Y16164300D01*
X23542018Y16111614D01*
X24543588Y15110044D01*
X25513181Y14140452D01*
X25546666Y14079129D01*
X25549500Y14052771D01*
X25549500Y11382501D01*
X25529815Y11315462D01*
X25486196Y11275003D01*
X25486277Y11274880D01*
X25485559Y11274411D01*
X25484521Y11273448D01*
X25481983Y11272075D01*
X25481982Y11272075D01*
X25481980Y11272073D01*
X25456311Y11252094D01*
X25287053Y11120356D01*
X25119752Y10938618D01*
X24984650Y10731828D01*
X24885428Y10505624D01*
X24824789Y10266166D01*
X24809500Y10081643D01*
X24809500Y7978357D01*
X24824789Y7793835D01*
X24824789Y7793832D01*
X24824790Y7793831D01*
X24885428Y7554377D01*
X24984652Y7328169D01*
X25119755Y7121379D01*
X25287052Y6939645D01*
X25287055Y6939643D01*
X25287058Y6939640D01*
X25481971Y6787933D01*
X25481977Y6787929D01*
X25481980Y6787927D01*
X25699221Y6670362D01*
X25820536Y6628715D01*
X25932846Y6590158D01*
X25932848Y6590158D01*
X25932850Y6590157D01*
X26176494Y6549500D01*
X26176495Y6549500D01*
X26423505Y6549500D01*
X26423506Y6549500D01*
X26667150Y6590157D01*
X26900779Y6670362D01*
X27118020Y6787927D01*
X27143691Y6807907D01*
X27203382Y6854367D01*
X27312948Y6939645D01*
X27480245Y7121379D01*
X27615348Y7328169D01*
X27714572Y7554377D01*
X27775210Y7793831D01*
X27790500Y7978355D01*
X27790500Y9285500D01*
X27810185Y9352539D01*
X27862989Y9398294D01*
X27914500Y9409500D01*
X39306295Y9409500D01*
X39324265Y9408191D01*
X39348023Y9404711D01*
X39400068Y9409265D01*
X39405470Y9409500D01*
X39413704Y9409500D01*
X39413709Y9409500D01*
X39425327Y9410859D01*
X39446276Y9413307D01*
X39459028Y9414423D01*
X39522797Y9420001D01*
X39522805Y9420004D01*
X39529866Y9421461D01*
X39529878Y9421402D01*
X39537243Y9423035D01*
X39537229Y9423094D01*
X39544246Y9424759D01*
X39544255Y9424759D01*
X39616423Y9451026D01*
X39689334Y9475186D01*
X39689343Y9475193D01*
X39695882Y9478240D01*
X39695908Y9478184D01*
X39702690Y9481468D01*
X39702663Y9481522D01*
X39709106Y9484760D01*
X39709117Y9484763D01*
X39773283Y9526966D01*
X39838656Y9567288D01*
X39838662Y9567295D01*
X39844325Y9571771D01*
X39844362Y9571723D01*
X39850204Y9576482D01*
X39850164Y9576529D01*
X39855691Y9581168D01*
X39855696Y9581170D01*
X39908386Y9637019D01*
X43040237Y12768872D01*
X43101558Y12802355D01*
X43117101Y12804716D01*
X43341692Y12824365D01*
X43561496Y12883261D01*
X43767734Y12979432D01*
X43954139Y13109953D01*
X44115047Y13270861D01*
X44245568Y13457266D01*
X44341739Y13663504D01*
X44400635Y13883308D01*
X44420283Y14107892D01*
X44445735Y14172959D01*
X44456122Y14184756D01*
X47475638Y17204273D01*
X47489267Y17216050D01*
X47508530Y17230390D01*
X47508532Y17230394D01*
X47508534Y17230394D01*
X47526663Y17252001D01*
X47542113Y17270415D01*
X47545767Y17274401D01*
X47551591Y17280224D01*
X47571930Y17305948D01*
X47621302Y17364786D01*
X47621306Y17364795D01*
X47625274Y17370825D01*
X47625325Y17370792D01*
X47629369Y17377140D01*
X47629317Y17377172D01*
X47633104Y17383315D01*
X47633111Y17383323D01*
X47665572Y17452937D01*
X47700040Y17521567D01*
X47700041Y17521573D01*
X47702508Y17528350D01*
X47702566Y17528329D01*
X47705043Y17535456D01*
X47704986Y17535474D01*
X47707255Y17542321D01*
X47707256Y17542326D01*
X47707257Y17542328D01*
X47722790Y17617559D01*
X47740500Y17692279D01*
X47740500Y17692281D01*
X47741339Y17699452D01*
X47741398Y17699446D01*
X47742164Y17706946D01*
X47742105Y17706951D01*
X47742734Y17714141D01*
X47740500Y17790918D01*
X47740500Y23423024D01*
X47760185Y23490063D01*
X47768632Y23501671D01*
X47825910Y23571462D01*
X47918814Y23745273D01*
X47976024Y23933868D01*
X47995341Y24130000D01*
X47976024Y24326132D01*
X47918814Y24514727D01*
X47917419Y24517337D01*
X47917100Y24518865D01*
X47916482Y24520359D01*
X47916765Y24520477D01*
X47903174Y24585739D01*
X47927512Y24650110D01*
X47933351Y24657911D01*
X47983597Y24792624D01*
X47983598Y24792628D01*
X47989999Y24852156D01*
X47990000Y24852173D01*
X47990000Y25150000D01*
X47235581Y25150000D01*
X47287060Y25205921D01*
X47333982Y25312892D01*
X47343628Y25429302D01*
X47314953Y25542538D01*
X47251064Y25640327D01*
X47158885Y25712072D01*
X47048405Y25750000D01*
X46960995Y25750000D01*
X46874784Y25735614D01*
X46772053Y25680019D01*
X46692940Y25594079D01*
X46646018Y25487108D01*
X46636372Y25370698D01*
X46665047Y25257462D01*
X46728936Y25159673D01*
X46741364Y25150000D01*
X45990000Y25150000D01*
X45990000Y24904500D01*
X45970315Y24837461D01*
X45917511Y24791706D01*
X45866000Y24780500D01*
X43965741Y24780500D01*
X43898702Y24800185D01*
X43852947Y24852989D01*
X43843003Y24922147D01*
X43846475Y24938434D01*
X43885902Y25077008D01*
X43885903Y25077011D01*
X43904713Y25280000D01*
X43904713Y25280001D01*
X43885903Y25482990D01*
X43885902Y25482993D01*
X43838385Y25650000D01*
X45990000Y25650000D01*
X46740000Y25650000D01*
X46740000Y26400000D01*
X47240000Y26400000D01*
X47240000Y25650000D01*
X47990000Y25650000D01*
X47990000Y25947828D01*
X47989999Y25947845D01*
X47983598Y26007373D01*
X47983596Y26007380D01*
X47933354Y26142087D01*
X47933350Y26142094D01*
X47847190Y26257188D01*
X47847187Y26257191D01*
X47732093Y26343351D01*
X47732086Y26343355D01*
X47597379Y26393597D01*
X47597372Y26393599D01*
X47537844Y26400000D01*
X47240000Y26400000D01*
X46740000Y26400000D01*
X46442155Y26400000D01*
X46382627Y26393599D01*
X46382620Y26393597D01*
X46247913Y26343355D01*
X46247906Y26343351D01*
X46132812Y26257191D01*
X46132809Y26257188D01*
X46046649Y26142094D01*
X46046645Y26142087D01*
X45996403Y26007380D01*
X45996401Y26007373D01*
X45990000Y25947845D01*
X45990000Y25650000D01*
X43838385Y25650000D01*
X43830116Y25679064D01*
X43830113Y25679070D01*
X43739244Y25861559D01*
X43737466Y25863914D01*
X43737465Y25863915D01*
X43095346Y25221796D01*
X43103895Y25251840D01*
X43093546Y25363521D01*
X43043552Y25463922D01*
X42960666Y25539484D01*
X42856080Y25580000D01*
X42772198Y25580000D01*
X42689750Y25564588D01*
X42594390Y25505543D01*
X42526799Y25416038D01*
X42496105Y25308160D01*
X42504052Y25222395D01*
X41862533Y25863915D01*
X41860754Y25861557D01*
X41769886Y25679070D01*
X41769883Y25679064D01*
X41714097Y25482993D01*
X41714096Y25482990D01*
X41695287Y25280001D01*
X41695287Y25280000D01*
X41714096Y25077011D01*
X41714097Y25077009D01*
X41769884Y24880937D01*
X41769890Y24880922D01*
X41807688Y24805015D01*
X41819949Y24736230D01*
X41795955Y24675432D01*
X41756204Y24622332D01*
X41756202Y24622329D01*
X41705908Y24487483D01*
X41699501Y24427884D01*
X41699500Y24427865D01*
X41699500Y23132130D01*
X41699501Y23132124D01*
X41705908Y23072517D01*
X41756202Y22937672D01*
X41756206Y22937665D01*
X41842452Y22822456D01*
X41842455Y22822453D01*
X41957664Y22736207D01*
X41957671Y22736203D01*
X42092517Y22685909D01*
X42092516Y22685909D01*
X42099444Y22685165D01*
X42152127Y22679500D01*
X43447872Y22679501D01*
X43507483Y22685909D01*
X43642331Y22736204D01*
X43757546Y22822454D01*
X43843796Y22937669D01*
X43894091Y23072517D01*
X43900500Y23132127D01*
X43900500Y23155500D01*
X43920185Y23222539D01*
X43972989Y23268294D01*
X44024500Y23279500D01*
X46115500Y23279500D01*
X46182539Y23259815D01*
X46228294Y23207011D01*
X46239500Y23155500D01*
X46239500Y18142230D01*
X46219815Y18075191D01*
X46203181Y18054549D01*
X43552080Y15403449D01*
X43490757Y15369964D01*
X43432306Y15371355D01*
X43341692Y15395635D01*
X43341690Y15395636D01*
X43341686Y15395636D01*
X43115002Y15415468D01*
X43114998Y15415468D01*
X42888313Y15395636D01*
X42888302Y15395634D01*
X42668511Y15336742D01*
X42668502Y15336739D01*
X42462267Y15240569D01*
X42462265Y15240568D01*
X42275858Y15110046D01*
X42114954Y14949142D01*
X41984432Y14762735D01*
X41984431Y14762733D01*
X41888261Y14556498D01*
X41888258Y14556489D01*
X41829366Y14336698D01*
X41829364Y14336687D01*
X41809532Y14110002D01*
X41809532Y14109999D01*
X41829364Y13883314D01*
X41829366Y13883304D01*
X41853645Y13792694D01*
X41851982Y13722845D01*
X41821551Y13672920D01*
X39095451Y10946819D01*
X39034128Y10913334D01*
X39007770Y10910500D01*
X27560524Y10910500D01*
X27493485Y10930185D01*
X27469294Y10950517D01*
X27312948Y11120355D01*
X27118020Y11272073D01*
X27115478Y11273449D01*
X27114639Y11274281D01*
X27113723Y11274880D01*
X27113846Y11275069D01*
X27065890Y11322669D01*
X27050500Y11382501D01*
X27050500Y14351295D01*
X27051809Y14369265D01*
X27055289Y14393026D01*
X27050736Y14445061D01*
X27050500Y14450468D01*
X27050500Y14458703D01*
X27050500Y14458709D01*
X27046691Y14491293D01*
X27039998Y14567798D01*
X27039996Y14567803D01*
X27038538Y14574867D01*
X27038597Y14574880D01*
X27036967Y14582236D01*
X27036908Y14582221D01*
X27035242Y14589247D01*
X27035241Y14589255D01*
X27008973Y14661427D01*
X26984815Y14734334D01*
X26981763Y14740879D01*
X26981817Y14740905D01*
X26978533Y14747688D01*
X26978480Y14747660D01*
X26975238Y14754114D01*
X26975237Y14754117D01*
X26933038Y14818277D01*
X26892712Y14883656D01*
X26892711Y14883657D01*
X26892710Y14883659D01*
X26888234Y14889319D01*
X26888280Y14889357D01*
X26883519Y14895201D01*
X26883474Y14895162D01*
X26878834Y14900692D01*
X26822982Y14953387D01*
X24851819Y16924550D01*
X24818334Y16985873D01*
X24815500Y17012231D01*
X24815500Y20097772D01*
X24835185Y20164811D01*
X24851814Y20185448D01*
X26367568Y21701203D01*
X26428891Y21734687D01*
X26498583Y21729703D01*
X26554516Y21687831D01*
X26578777Y21624329D01*
X26589364Y21503313D01*
X26589366Y21503303D01*
X26648258Y21283512D01*
X26648261Y21283503D01*
X26744431Y21077268D01*
X26744432Y21077266D01*
X26874954Y20890859D01*
X27035858Y20729955D01*
X27035861Y20729953D01*
X27222266Y20599432D01*
X27280275Y20572382D01*
X27332714Y20526209D01*
X27351866Y20459016D01*
X27331650Y20392135D01*
X27280275Y20347618D01*
X27222267Y20320569D01*
X27222265Y20320568D01*
X27035858Y20190046D01*
X26874954Y20029142D01*
X26744432Y19842735D01*
X26744431Y19842733D01*
X26648261Y19636498D01*
X26648258Y19636489D01*
X26589366Y19416698D01*
X26589364Y19416687D01*
X26569532Y19190002D01*
X26569532Y19189999D01*
X26589364Y18963314D01*
X26589366Y18963303D01*
X26648258Y18743512D01*
X26648261Y18743503D01*
X26744431Y18537268D01*
X26744432Y18537266D01*
X26874954Y18350859D01*
X27035858Y18189955D01*
X27035861Y18189953D01*
X27222266Y18059432D01*
X27428504Y17963261D01*
X27648308Y17904365D01*
X27810230Y17890199D01*
X27874998Y17884532D01*
X27875000Y17884532D01*
X27875002Y17884532D01*
X27931673Y17889491D01*
X28101692Y17904365D01*
X28321496Y17963261D01*
X28527734Y18059432D01*
X28714139Y18189953D01*
X28875047Y18350861D01*
X28900088Y18386623D01*
X28954665Y18430248D01*
X29001663Y18439500D01*
X31828337Y18439500D01*
X31895376Y18419815D01*
X31929912Y18386623D01*
X31954954Y18350859D01*
X32115857Y18189956D01*
X32115860Y18189954D01*
X32115861Y18189953D01*
X32216623Y18119400D01*
X32260248Y18064824D01*
X32269500Y18017825D01*
X32269500Y15282177D01*
X32249815Y15215138D01*
X32216624Y15180602D01*
X32115856Y15110044D01*
X31954954Y14949142D01*
X31824432Y14762735D01*
X31824431Y14762733D01*
X31728261Y14556498D01*
X31728258Y14556489D01*
X31669366Y14336698D01*
X31669364Y14336687D01*
X31649532Y14110002D01*
X31649532Y14109999D01*
X31669364Y13883314D01*
X31669366Y13883303D01*
X31728258Y13663512D01*
X31728261Y13663503D01*
X31824431Y13457268D01*
X31824432Y13457266D01*
X31954954Y13270859D01*
X32115858Y13109955D01*
X32115861Y13109953D01*
X32302266Y12979432D01*
X32508504Y12883261D01*
X32728308Y12824365D01*
X32890230Y12810199D01*
X32954998Y12804532D01*
X32955000Y12804532D01*
X32955002Y12804532D01*
X33011673Y12809491D01*
X33181692Y12824365D01*
X33401496Y12883261D01*
X33607734Y12979432D01*
X33794139Y13109953D01*
X33955047Y13270861D01*
X34085568Y13457266D01*
X34181739Y13663504D01*
X34240635Y13883308D01*
X34260468Y14110000D01*
X34240635Y14336692D01*
X34181739Y14556496D01*
X34085568Y14762734D01*
X33955047Y14949139D01*
X33955045Y14949142D01*
X33806819Y15097368D01*
X33773334Y15158691D01*
X33770500Y15185049D01*
X33770500Y18114951D01*
X33790185Y18181990D01*
X33806819Y18202632D01*
X33955045Y18350859D01*
X33955047Y18350861D01*
X34085568Y18537266D01*
X34181739Y18743504D01*
X34240635Y18963308D01*
X34260468Y19190000D01*
X34260253Y19192453D01*
X34254801Y19254770D01*
X34240635Y19416692D01*
X34234389Y19440001D01*
X41836127Y19440001D01*
X41836128Y19440000D01*
X42799314Y19440000D01*
X42787359Y19428045D01*
X42729835Y19315148D01*
X42710014Y19190000D01*
X42729835Y19064852D01*
X42787359Y18951955D01*
X42799314Y18940000D01*
X41836128Y18940000D01*
X41888730Y18743683D01*
X41888734Y18743674D01*
X41984865Y18537518D01*
X42115342Y18351180D01*
X42276179Y18190343D01*
X42462517Y18059866D01*
X42668673Y17963735D01*
X42668682Y17963731D01*
X42864999Y17911128D01*
X42865000Y17911129D01*
X42865000Y18874314D01*
X42876955Y18862359D01*
X42989852Y18804835D01*
X43083519Y18790000D01*
X43146481Y18790000D01*
X43240148Y18804835D01*
X43353045Y18862359D01*
X43365000Y18874314D01*
X43365000Y17911128D01*
X43561317Y17963731D01*
X43561326Y17963735D01*
X43767482Y18059866D01*
X43953820Y18190343D01*
X44114657Y18351180D01*
X44245134Y18537518D01*
X44341265Y18743674D01*
X44341269Y18743683D01*
X44393872Y18940000D01*
X43430686Y18940000D01*
X43442641Y18951955D01*
X43500165Y19064852D01*
X43519986Y19190000D01*
X43500165Y19315148D01*
X43442641Y19428045D01*
X43430686Y19440000D01*
X44393872Y19440000D01*
X44393872Y19440001D01*
X44341269Y19636318D01*
X44341265Y19636327D01*
X44245134Y19842483D01*
X44114657Y20028821D01*
X43953820Y20189658D01*
X43767482Y20320135D01*
X43561328Y20416266D01*
X43365000Y20468873D01*
X43365000Y19505686D01*
X43353045Y19517641D01*
X43240148Y19575165D01*
X43146481Y19590000D01*
X43083519Y19590000D01*
X42989852Y19575165D01*
X42876955Y19517641D01*
X42865000Y19505686D01*
X42865000Y20468873D01*
X42668671Y20416266D01*
X42462517Y20320135D01*
X42276179Y20189658D01*
X42115342Y20028821D01*
X41984865Y19842483D01*
X41888734Y19636327D01*
X41888730Y19636318D01*
X41836127Y19440001D01*
X34234389Y19440001D01*
X34181739Y19636496D01*
X34085568Y19842734D01*
X33955047Y20029139D01*
X33955045Y20029142D01*
X33794141Y20190046D01*
X33607734Y20320568D01*
X33607732Y20320569D01*
X33401497Y20416739D01*
X33401488Y20416742D01*
X33181697Y20475634D01*
X33181693Y20475635D01*
X33181692Y20475635D01*
X33181691Y20475636D01*
X33181686Y20475636D01*
X32955002Y20495468D01*
X32954998Y20495468D01*
X32728313Y20475636D01*
X32728302Y20475634D01*
X32508511Y20416742D01*
X32508502Y20416739D01*
X32302267Y20320569D01*
X32302265Y20320568D01*
X32115858Y20190046D01*
X31954954Y20029142D01*
X31929912Y19993377D01*
X31875335Y19949752D01*
X31828337Y19940500D01*
X29001663Y19940500D01*
X28934624Y19960185D01*
X28900088Y19993377D01*
X28875045Y20029142D01*
X28714141Y20190046D01*
X28527734Y20320568D01*
X28527728Y20320571D01*
X28469725Y20347618D01*
X28417285Y20393790D01*
X28398133Y20460983D01*
X28418348Y20527865D01*
X28469725Y20572382D01*
X28527734Y20599432D01*
X28714139Y20729953D01*
X28875047Y20890861D01*
X29005568Y21077266D01*
X29101739Y21283504D01*
X29160635Y21503308D01*
X29180283Y21727892D01*
X29205735Y21792959D01*
X29216122Y21804756D01*
X33625608Y26214242D01*
X42219310Y26214242D01*
X42800000Y25633553D01*
X42800001Y25633553D01*
X43380688Y26214242D01*
X43380687Y26214243D01*
X43292418Y26268896D01*
X43292411Y26268900D01*
X43102321Y26342540D01*
X42901928Y26380000D01*
X42698072Y26380000D01*
X42497678Y26342540D01*
X42307588Y26268900D01*
X42307584Y26268898D01*
X42219310Y26214242D01*
X33625608Y26214242D01*
X38585642Y31174276D01*
X38599271Y31186053D01*
X38618530Y31200390D01*
X38652101Y31240399D01*
X38655761Y31244394D01*
X38661590Y31250222D01*
X38681941Y31275961D01*
X38687948Y31283121D01*
X38731302Y31334786D01*
X38731306Y31334795D01*
X38735274Y31340825D01*
X38735325Y31340792D01*
X38739372Y31347144D01*
X38739320Y31347176D01*
X38743112Y31353325D01*
X38775575Y31422942D01*
X38810036Y31491560D01*
X38810040Y31491567D01*
X38810042Y31491579D01*
X38812509Y31498354D01*
X38812567Y31498333D01*
X38815043Y31505454D01*
X38814986Y31505472D01*
X38817257Y31512327D01*
X38832792Y31587566D01*
X38850498Y31662272D01*
X38850500Y31662279D01*
X38850500Y31662290D01*
X38851338Y31669452D01*
X38851398Y31669445D01*
X38852164Y31676945D01*
X38852105Y31676950D01*
X38852734Y31684140D01*
X38850500Y31760918D01*
X38850500Y31896000D01*
X38870185Y31963039D01*
X38922989Y32008794D01*
X38974500Y32020000D01*
X39120000Y32020000D01*
X39120000Y32812328D01*
X39157871Y32767195D01*
X39257129Y32709888D01*
X39341564Y32695000D01*
X39398436Y32695000D01*
X39482871Y32709888D01*
X39582129Y32767195D01*
X39584483Y32770000D01*
X39620000Y32770000D01*
X39620000Y32020000D01*
X39917828Y32020000D01*
X39917844Y32020001D01*
X39977372Y32026402D01*
X39977379Y32026404D01*
X40112086Y32076646D01*
X40112093Y32076650D01*
X40227187Y32162810D01*
X40227190Y32162813D01*
X40313350Y32277907D01*
X40313354Y32277914D01*
X40363596Y32412621D01*
X40363598Y32412628D01*
X40369999Y32472156D01*
X40370000Y32472173D01*
X40370000Y32770000D01*
X39620000Y32770000D01*
X39584483Y32770000D01*
X39655801Y32854993D01*
X39695000Y32962694D01*
X39695000Y33077306D01*
X39655801Y33185007D01*
X39582129Y33272805D01*
X39482871Y33330112D01*
X39398436Y33345000D01*
X39341564Y33345000D01*
X39257129Y33330112D01*
X39157871Y33272805D01*
X39120000Y33227673D01*
X39120000Y34020000D01*
X39620000Y34020000D01*
X39620000Y33270000D01*
X40370000Y33270000D01*
X40370000Y33567828D01*
X40369999Y33567845D01*
X40363598Y33627373D01*
X40363596Y33627380D01*
X40313354Y33762087D01*
X40313350Y33762094D01*
X40227190Y33877188D01*
X40227187Y33877191D01*
X40112093Y33963351D01*
X40112086Y33963355D01*
X39977379Y34013597D01*
X39977372Y34013599D01*
X39917844Y34020000D01*
X39620000Y34020000D01*
X39120000Y34020000D01*
X38822155Y34020000D01*
X38762627Y34013599D01*
X38762620Y34013597D01*
X38627913Y33963355D01*
X38627907Y33963352D01*
X38620102Y33957508D01*
X38554638Y33933092D01*
X38490470Y33946751D01*
X38490359Y33946482D01*
X38488905Y33947084D01*
X38487341Y33947417D01*
X38484731Y33948812D01*
X38484730Y33948813D01*
X38484727Y33948814D01*
X38296132Y34006024D01*
X38296129Y34006025D01*
X38100000Y34025341D01*
X37903870Y34006025D01*
X37715266Y33948812D01*
X37541467Y33855914D01*
X37541460Y33855910D01*
X37389116Y33730884D01*
X37264090Y33578540D01*
X37264086Y33578533D01*
X37171188Y33404734D01*
X37113975Y33216130D01*
X37094659Y33020000D01*
X37113975Y32823871D01*
X37113976Y32823868D01*
X37136369Y32750047D01*
X37171188Y32635267D01*
X37264084Y32461471D01*
X37264087Y32461467D01*
X37264090Y32461462D01*
X37321354Y32391686D01*
X37348666Y32327380D01*
X37349500Y32313024D01*
X37349500Y32112231D01*
X37329815Y32045192D01*
X37313181Y32024550D01*
X29385112Y24096482D01*
X29323789Y24062997D01*
X29254097Y24067981D01*
X29198164Y24109853D01*
X29173747Y24175317D01*
X29173902Y24194961D01*
X29180468Y24270000D01*
X29160635Y24496692D01*
X29101739Y24716496D01*
X29005568Y24922734D01*
X28875047Y25109139D01*
X28875045Y25109142D01*
X28714141Y25270046D01*
X28527734Y25400568D01*
X28527728Y25400571D01*
X28493581Y25416494D01*
X28469724Y25427619D01*
X28417285Y25473790D01*
X28398133Y25540983D01*
X28418348Y25607865D01*
X28469725Y25652382D01*
X28527734Y25679432D01*
X28714139Y25809953D01*
X28875047Y25970861D01*
X29005568Y26157266D01*
X29101739Y26363504D01*
X29160635Y26583308D01*
X29180283Y26807892D01*
X29205735Y26872959D01*
X29216122Y26884756D01*
X32754652Y30423286D01*
X32815973Y30456769D01*
X32853135Y30459131D01*
X32996366Y30446600D01*
X33019999Y30444532D01*
X33020000Y30444532D01*
X33020002Y30444532D01*
X33076673Y30449491D01*
X33246692Y30464365D01*
X33466496Y30523261D01*
X33672734Y30619432D01*
X33859139Y30749953D01*
X34020047Y30910861D01*
X34150568Y31097266D01*
X34246739Y31303504D01*
X34305635Y31523308D01*
X34325468Y31750000D01*
X34305635Y31976692D01*
X34246739Y32196496D01*
X34150568Y32402734D01*
X34020047Y32589139D01*
X34020045Y32589142D01*
X33859141Y32750046D01*
X33672734Y32880568D01*
X33672732Y32880569D01*
X33466497Y32976739D01*
X33466488Y32976742D01*
X33246697Y33035634D01*
X33246693Y33035635D01*
X33246692Y33035635D01*
X33246691Y33035636D01*
X33246686Y33035636D01*
X33020002Y33055468D01*
X33019998Y33055468D01*
X32793313Y33035636D01*
X32793302Y33035634D01*
X32573511Y32976742D01*
X32573502Y32976739D01*
X32367267Y32880569D01*
X32367265Y32880568D01*
X32180858Y32750046D01*
X32019954Y32589142D01*
X31889432Y32402735D01*
X31889431Y32402733D01*
X31793261Y32196498D01*
X31793258Y32196489D01*
X31734366Y31976698D01*
X31734364Y31976687D01*
X31714532Y31750002D01*
X31714532Y31749997D01*
X31729129Y31583139D01*
X31715362Y31514640D01*
X31693282Y31484652D01*
X28312080Y28103450D01*
X28250757Y28069965D01*
X28192307Y28071356D01*
X28101699Y28095633D01*
X28101702Y28095633D01*
X28101692Y28095635D01*
X28101689Y28095636D01*
X28101686Y28095636D01*
X27875001Y28115468D01*
X27874998Y28115468D01*
X27648313Y28095636D01*
X27648302Y28095634D01*
X27428511Y28036742D01*
X27428502Y28036739D01*
X27222267Y27940569D01*
X27222265Y27940568D01*
X27035858Y27810046D01*
X26874954Y27649142D01*
X26744432Y27462735D01*
X26744431Y27462733D01*
X26648261Y27256498D01*
X26648258Y27256489D01*
X26589366Y27036698D01*
X26589364Y27036687D01*
X26569532Y26810002D01*
X26569532Y26809999D01*
X26589364Y26583314D01*
X26589366Y26583303D01*
X26648258Y26363512D01*
X26648261Y26363503D01*
X26744431Y26157268D01*
X26744432Y26157266D01*
X26874954Y25970859D01*
X27035858Y25809955D01*
X27035861Y25809953D01*
X27222266Y25679432D01*
X27280275Y25652382D01*
X27332714Y25606209D01*
X27351866Y25539016D01*
X27331650Y25472135D01*
X27280275Y25427618D01*
X27222267Y25400569D01*
X27222265Y25400568D01*
X27035858Y25270046D01*
X26874954Y25109142D01*
X26744432Y24922735D01*
X26744431Y24922733D01*
X26648261Y24716498D01*
X26648258Y24716489D01*
X26589366Y24496698D01*
X26589364Y24496687D01*
X26569532Y24270002D01*
X26569532Y24269997D01*
X26584129Y24103139D01*
X26570362Y24034640D01*
X26548282Y24004652D01*
X23579358Y21035728D01*
X23565729Y21023949D01*
X23546468Y21009610D01*
X23512898Y20969603D01*
X23509253Y20965624D01*
X23503409Y20959778D01*
X23483059Y20934041D01*
X23433695Y20875211D01*
X23429729Y20869181D01*
X23429682Y20869212D01*
X23425630Y20862853D01*
X23425679Y20862823D01*
X23421889Y20856679D01*
X23389424Y20787059D01*
X23354960Y20718434D01*
X23352488Y20711643D01*
X23352432Y20711664D01*
X23349960Y20704550D01*
X23350015Y20704531D01*
X23347742Y20697673D01*
X23339975Y20660054D01*
X23332207Y20622435D01*
X23319001Y20566716D01*
X23314498Y20547714D01*
X23313661Y20540546D01*
X23313601Y20540553D01*
X23312835Y20533055D01*
X23312895Y20533049D01*
X23312265Y20525860D01*
X23314500Y20449084D01*
X23314500Y16713706D01*
X23313191Y16695737D01*
X23309710Y16671975D01*
X500500Y16671975D01*
X500500Y19502130D01*
X6344500Y19502130D01*
X6344501Y19502124D01*
X6350908Y19442517D01*
X6401202Y19307672D01*
X6401206Y19307665D01*
X6487452Y19192456D01*
X6487455Y19192453D01*
X6602664Y19106207D01*
X6602671Y19106203D01*
X6737517Y19055909D01*
X6737516Y19055909D01*
X6744444Y19055165D01*
X6797127Y19049500D01*
X10852872Y19049501D01*
X10912483Y19055909D01*
X11047331Y19106204D01*
X11162546Y19192454D01*
X11248796Y19307669D01*
X11299091Y19442517D01*
X11305500Y19502127D01*
X11305499Y20715501D01*
X11325184Y20782539D01*
X11377987Y20828294D01*
X11429499Y20839500D01*
X19254952Y20839500D01*
X19321991Y20819815D01*
X19342628Y20803186D01*
X19415859Y20729955D01*
X19415862Y20729952D01*
X19461962Y20697673D01*
X19602266Y20599432D01*
X19660865Y20572107D01*
X19713305Y20525935D01*
X19732457Y20458742D01*
X19712242Y20391861D01*
X19660867Y20347343D01*
X19602515Y20320133D01*
X19416179Y20189658D01*
X19255342Y20028821D01*
X19124865Y19842483D01*
X19028734Y19636327D01*
X19028730Y19636318D01*
X18976127Y19440001D01*
X18976128Y19440000D01*
X19939314Y19440000D01*
X19927359Y19428045D01*
X19869835Y19315148D01*
X19850014Y19190000D01*
X19869835Y19064852D01*
X19927359Y18951955D01*
X19939314Y18940000D01*
X18976128Y18940000D01*
X19028730Y18743683D01*
X19028734Y18743674D01*
X19124865Y18537518D01*
X19255342Y18351180D01*
X19416179Y18190343D01*
X19602517Y18059866D01*
X19808673Y17963735D01*
X19808682Y17963731D01*
X20004999Y17911128D01*
X20005000Y17911129D01*
X20005000Y18874314D01*
X20016955Y18862359D01*
X20129852Y18804835D01*
X20223519Y18790000D01*
X20286481Y18790000D01*
X20380148Y18804835D01*
X20493045Y18862359D01*
X20505000Y18874314D01*
X20505000Y17911128D01*
X20701317Y17963731D01*
X20701326Y17963735D01*
X20907482Y18059866D01*
X21093820Y18190343D01*
X21254657Y18351180D01*
X21385134Y18537518D01*
X21481265Y18743674D01*
X21481269Y18743683D01*
X21533872Y18940000D01*
X20570686Y18940000D01*
X20582641Y18951955D01*
X20640165Y19064852D01*
X20659986Y19190000D01*
X20640165Y19315148D01*
X20582641Y19428045D01*
X20570686Y19440000D01*
X21533872Y19440000D01*
X21533872Y19440001D01*
X21481269Y19636318D01*
X21481265Y19636327D01*
X21385134Y19842483D01*
X21254657Y20028821D01*
X21093820Y20189658D01*
X20907482Y20320135D01*
X20849133Y20347343D01*
X20796694Y20393516D01*
X20777542Y20460709D01*
X20797758Y20527590D01*
X20849129Y20572105D01*
X20907734Y20599432D01*
X21094139Y20729953D01*
X21255047Y20890861D01*
X21385568Y21077266D01*
X21481739Y21283504D01*
X21540635Y21503308D01*
X21557634Y21697616D01*
X21560468Y21729999D01*
X21560468Y21730002D01*
X21553927Y21804764D01*
X21540635Y21956692D01*
X21482549Y22173472D01*
X21481741Y22176489D01*
X21481738Y22176498D01*
X21480930Y22178231D01*
X21385568Y22382734D01*
X21255047Y22569139D01*
X21255045Y22569142D01*
X21094141Y22730046D01*
X20907734Y22860568D01*
X20907728Y22860571D01*
X20849725Y22887618D01*
X20797285Y22933790D01*
X20778133Y23000983D01*
X20798348Y23067865D01*
X20849725Y23112382D01*
X20907734Y23139432D01*
X21094139Y23269953D01*
X21255047Y23430861D01*
X21385568Y23617266D01*
X21481739Y23823504D01*
X21540635Y24043308D01*
X21560468Y24270000D01*
X21540635Y24496692D01*
X21481739Y24716496D01*
X21385568Y24922734D01*
X21255047Y25109139D01*
X21255045Y25109142D01*
X21094143Y25270044D01*
X21079924Y25280000D01*
X21069535Y25287275D01*
X21025912Y25341851D01*
X21018719Y25411350D01*
X21050241Y25473704D01*
X21110471Y25509118D01*
X21127404Y25512139D01*
X21162483Y25515909D01*
X21297331Y25566204D01*
X21412546Y25652454D01*
X21498796Y25767669D01*
X21549091Y25902517D01*
X21555500Y25962127D01*
X21555499Y27657872D01*
X21549091Y27717483D01*
X21514567Y27810046D01*
X21498797Y27852329D01*
X21498793Y27852336D01*
X21412547Y27967545D01*
X21412544Y27967548D01*
X21297335Y28053794D01*
X21297328Y28053798D01*
X21155215Y28106802D01*
X21156012Y28108940D01*
X21105259Y28137848D01*
X21072880Y28199762D01*
X21070500Y28223941D01*
X21070500Y30416295D01*
X21071809Y30434265D01*
X21075105Y30456769D01*
X21075289Y30458023D01*
X21074751Y30464170D01*
X21070736Y30510066D01*
X21070500Y30515472D01*
X21070500Y30523703D01*
X21070500Y30523709D01*
X21066693Y30556276D01*
X21059999Y30632797D01*
X21059999Y30632799D01*
X21058539Y30639871D01*
X21058597Y30639884D01*
X21056965Y30647243D01*
X21056906Y30647228D01*
X21055242Y30654247D01*
X21055241Y30654255D01*
X21028974Y30726424D01*
X21004814Y30799334D01*
X21004809Y30799341D01*
X21001760Y30805882D01*
X21001815Y30805909D01*
X20998533Y30812687D01*
X20998480Y30812660D01*
X20995235Y30819120D01*
X20953028Y30883292D01*
X20912710Y30948658D01*
X20908234Y30954318D01*
X20908281Y30954356D01*
X20903519Y30960201D01*
X20903474Y30960162D01*
X20898834Y30965692D01*
X20842964Y31018404D01*
X20111369Y31749999D01*
X21554532Y31749999D01*
X21574364Y31523314D01*
X21574366Y31523303D01*
X21633258Y31303512D01*
X21633261Y31303503D01*
X21729431Y31097268D01*
X21729432Y31097266D01*
X21859954Y30910859D01*
X22020858Y30749955D01*
X22020861Y30749953D01*
X22207266Y30619432D01*
X22413504Y30523261D01*
X22633308Y30464365D01*
X22795230Y30450199D01*
X22859998Y30444532D01*
X22860000Y30444532D01*
X22860002Y30444532D01*
X22916673Y30449491D01*
X23086692Y30464365D01*
X23306496Y30523261D01*
X23512734Y30619432D01*
X23699139Y30749953D01*
X23860047Y30910861D01*
X23990568Y31097266D01*
X24086739Y31303504D01*
X24145635Y31523308D01*
X24165468Y31750000D01*
X24145635Y31976692D01*
X24086739Y32196496D01*
X23990568Y32402734D01*
X23860047Y32589139D01*
X23762955Y32686231D01*
X23729472Y32747551D01*
X23734456Y32817243D01*
X23762955Y32861589D01*
X25134652Y34233286D01*
X25195973Y34266769D01*
X25233135Y34269131D01*
X25376366Y34256600D01*
X25399999Y34254532D01*
X25400000Y34254532D01*
X25400002Y34254532D01*
X25456673Y34259491D01*
X25626692Y34274365D01*
X25846496Y34333261D01*
X26052734Y34429432D01*
X26239139Y34559953D01*
X26400047Y34720861D01*
X26530568Y34907266D01*
X26587800Y35029999D01*
X45044390Y35029999D01*
X45064804Y34744567D01*
X45125628Y34464963D01*
X45125630Y34464957D01*
X45125631Y34464954D01*
X45203804Y34255365D01*
X45225635Y34196834D01*
X45362770Y33945691D01*
X45362775Y33945683D01*
X45534254Y33716613D01*
X45534270Y33716595D01*
X45736594Y33514271D01*
X45736612Y33514255D01*
X45965682Y33342776D01*
X45965690Y33342771D01*
X46216833Y33205636D01*
X46216832Y33205636D01*
X46216836Y33205635D01*
X46216839Y33205633D01*
X46484954Y33105631D01*
X46484960Y33105630D01*
X46484962Y33105629D01*
X46764566Y33044805D01*
X46764568Y33044805D01*
X46764572Y33044804D01*
X47018220Y33026663D01*
X47049999Y33024390D01*
X47050000Y33024390D01*
X47050001Y33024390D01*
X47078595Y33026436D01*
X47335428Y33044804D01*
X47557208Y33093049D01*
X47615037Y33105629D01*
X47615037Y33105630D01*
X47615046Y33105631D01*
X47883161Y33205633D01*
X48134315Y33342774D01*
X48363395Y33514261D01*
X48565739Y33716605D01*
X48737226Y33945685D01*
X48874367Y34196839D01*
X48974369Y34464954D01*
X49035196Y34744572D01*
X49055610Y35030000D01*
X49035196Y35315428D01*
X49031306Y35333308D01*
X48974371Y35595038D01*
X48974370Y35595040D01*
X48974369Y35595046D01*
X48874367Y35863161D01*
X48794025Y36010295D01*
X48737229Y36114310D01*
X48737224Y36114318D01*
X48565745Y36343388D01*
X48565729Y36343406D01*
X48363405Y36545730D01*
X48363387Y36545746D01*
X48134317Y36717225D01*
X48134309Y36717230D01*
X47883166Y36854365D01*
X47883167Y36854365D01*
X47775915Y36894368D01*
X47615046Y36954369D01*
X47615043Y36954370D01*
X47615037Y36954372D01*
X47335433Y37015196D01*
X47050001Y37035610D01*
X47049999Y37035610D01*
X46764566Y37015196D01*
X46484962Y36954372D01*
X46216833Y36854365D01*
X45965690Y36717230D01*
X45965682Y36717225D01*
X45736612Y36545746D01*
X45736594Y36545730D01*
X45534270Y36343406D01*
X45534254Y36343388D01*
X45362775Y36114318D01*
X45362770Y36114310D01*
X45225635Y35863167D01*
X45125628Y35595038D01*
X45064804Y35315434D01*
X45044390Y35030002D01*
X45044390Y35029999D01*
X26587800Y35029999D01*
X26626739Y35113504D01*
X26685635Y35333308D01*
X26705468Y35560000D01*
X26685635Y35786692D01*
X26626739Y36006496D01*
X26530568Y36212734D01*
X26400047Y36399139D01*
X26400045Y36399142D01*
X26239141Y36560046D01*
X26052734Y36690568D01*
X26052732Y36690569D01*
X25846497Y36786739D01*
X25846488Y36786742D01*
X25626697Y36845634D01*
X25626693Y36845635D01*
X25626692Y36845635D01*
X25626691Y36845636D01*
X25626686Y36845636D01*
X25400002Y36865468D01*
X25399998Y36865468D01*
X25173313Y36845636D01*
X25173302Y36845634D01*
X24953511Y36786742D01*
X24953502Y36786739D01*
X24747267Y36690569D01*
X24747265Y36690568D01*
X24560858Y36560046D01*
X24399954Y36399142D01*
X24269432Y36212735D01*
X24269431Y36212733D01*
X24173261Y36006498D01*
X24173258Y36006489D01*
X24114366Y35786698D01*
X24114364Y35786687D01*
X24094532Y35560002D01*
X24094532Y35559997D01*
X24109129Y35393139D01*
X24095362Y35324640D01*
X24073282Y35294652D01*
X22374358Y33595728D01*
X22360729Y33583949D01*
X22341468Y33569610D01*
X22307898Y33529603D01*
X22304253Y33525624D01*
X22298409Y33519778D01*
X22278059Y33494041D01*
X22228695Y33435211D01*
X22224729Y33429181D01*
X22224682Y33429212D01*
X22220630Y33422853D01*
X22220679Y33422823D01*
X22216889Y33416679D01*
X22184424Y33347059D01*
X22149960Y33278434D01*
X22147488Y33271643D01*
X22147432Y33271664D01*
X22144960Y33264550D01*
X22145015Y33264531D01*
X22142742Y33257673D01*
X22134975Y33220054D01*
X22127207Y33182435D01*
X22114001Y33126716D01*
X22109498Y33107714D01*
X22108661Y33100546D01*
X22108601Y33100553D01*
X22107835Y33093055D01*
X22107895Y33093049D01*
X22107265Y33085860D01*
X22109500Y33009084D01*
X22109500Y32876664D01*
X22089815Y32809625D01*
X22056625Y32775090D01*
X22020863Y32750049D01*
X21859951Y32589138D01*
X21729432Y32402735D01*
X21729431Y32402733D01*
X21633261Y32196498D01*
X21633258Y32196489D01*
X21574366Y31976698D01*
X21574364Y31976687D01*
X21554532Y31750002D01*
X21554532Y31749999D01*
X20111369Y31749999D01*
X16566716Y35294652D01*
X16533231Y35355975D01*
X16530869Y35393139D01*
X16545468Y35560000D01*
X16525635Y35786692D01*
X16466739Y36006496D01*
X16370568Y36212734D01*
X16240047Y36399139D01*
X16240045Y36399142D01*
X16079141Y36560046D01*
X15892734Y36690568D01*
X15892732Y36690569D01*
X15686497Y36786739D01*
X15686488Y36786742D01*
X15466697Y36845634D01*
X15466693Y36845635D01*
X15466692Y36845635D01*
X15466691Y36845636D01*
X15466686Y36845636D01*
X15240002Y36865468D01*
X15239998Y36865468D01*
X15013313Y36845636D01*
X15013302Y36845634D01*
X14793511Y36786742D01*
X14793502Y36786739D01*
X14587267Y36690569D01*
X14587265Y36690568D01*
X14400858Y36560046D01*
X14239954Y36399142D01*
X14109432Y36212735D01*
X14109431Y36212733D01*
X14013261Y36006498D01*
X14013258Y36006489D01*
X13954366Y35786698D01*
X13954364Y35786687D01*
X13934532Y35560002D01*
X13934532Y35559999D01*
X13954364Y35333314D01*
X13954366Y35333303D01*
X14013258Y35113512D01*
X14013261Y35113503D01*
X14109431Y34907268D01*
X14109432Y34907266D01*
X14239954Y34720859D01*
X14400858Y34559955D01*
X14400861Y34559953D01*
X14587266Y34429432D01*
X14793504Y34333261D01*
X15013308Y34274365D01*
X15175230Y34260199D01*
X15239998Y34254532D01*
X15240000Y34254532D01*
X15240001Y34254532D01*
X15260062Y34256288D01*
X15406861Y34269131D01*
X15475359Y34255365D01*
X15505348Y34233284D01*
X19533181Y30205451D01*
X19566666Y30144128D01*
X19569500Y30117770D01*
X19569500Y28234500D01*
X19549815Y28167461D01*
X19497011Y28121706D01*
X19445503Y28110500D01*
X19407131Y28110500D01*
X19407123Y28110499D01*
X19347516Y28104092D01*
X19212671Y28053798D01*
X19212664Y28053794D01*
X19097455Y27967548D01*
X19097452Y27967545D01*
X19011206Y27852336D01*
X19011202Y27852329D01*
X18960908Y27717483D01*
X18954501Y27657884D01*
X18954501Y27657877D01*
X18954500Y27657865D01*
X18954500Y25962130D01*
X18954501Y25962124D01*
X18960908Y25902517D01*
X19011202Y25767672D01*
X19011206Y25767665D01*
X19097452Y25652456D01*
X19097455Y25652453D01*
X19212664Y25566207D01*
X19212671Y25566203D01*
X19257618Y25549439D01*
X19347517Y25515909D01*
X19382596Y25512138D01*
X19447144Y25485401D01*
X19486993Y25428009D01*
X19489488Y25358184D01*
X19453836Y25298095D01*
X19440464Y25287275D01*
X19415858Y25270046D01*
X19254954Y25109142D01*
X19194041Y25022147D01*
X19131883Y24933376D01*
X19077309Y24889752D01*
X19030310Y24880500D01*
X11338152Y24880500D01*
X11271113Y24900185D01*
X11225358Y24952989D01*
X11215414Y25022147D01*
X11220871Y25044763D01*
X11264842Y25172847D01*
X11270362Y25205921D01*
X11305500Y25416494D01*
X11305500Y25663506D01*
X11264843Y25907150D01*
X11250872Y25947845D01*
X11184640Y26140772D01*
X11184637Y26140781D01*
X11144881Y26214243D01*
X11067073Y26358020D01*
X11067071Y26358023D01*
X11067067Y26358029D01*
X10915360Y26552942D01*
X10915357Y26552945D01*
X10915355Y26552948D01*
X10733621Y26720245D01*
X10733618Y26720247D01*
X10733617Y26720248D01*
X10653659Y26772487D01*
X10526831Y26855348D01*
X10526828Y26855350D01*
X10526827Y26855350D01*
X10300623Y26954572D01*
X10061165Y27015211D01*
X9913297Y27027463D01*
X9876645Y27030500D01*
X7773355Y27030500D01*
X7740014Y27027738D01*
X7588834Y27015211D01*
X7349376Y26954572D01*
X7123172Y26855350D01*
X6916382Y26720248D01*
X6916379Y26720245D01*
X6767632Y26583314D01*
X6734642Y26552945D01*
X6734639Y26552942D01*
X6582932Y26358029D01*
X6582928Y26358023D01*
X6465362Y26140781D01*
X6465359Y26140772D01*
X6385157Y25907154D01*
X6361882Y25767672D01*
X6344500Y25663506D01*
X6344500Y25416494D01*
X6347158Y25400568D01*
X6385157Y25172847D01*
X6465359Y24939229D01*
X6465362Y24939220D01*
X6582928Y24721978D01*
X6582932Y24721972D01*
X6734639Y24527059D01*
X6734641Y24527057D01*
X6734645Y24527052D01*
X6916379Y24359755D01*
X7123169Y24224652D01*
X7349377Y24125428D01*
X7588831Y24064790D01*
X7773355Y24049500D01*
X9127771Y24049500D01*
X9194810Y24029815D01*
X9215452Y24013181D01*
X9584267Y23644366D01*
X9596048Y23630734D01*
X9610390Y23611470D01*
X9650420Y23577881D01*
X9654392Y23574241D01*
X9660223Y23568410D01*
X9660222Y23568410D01*
X9685944Y23548073D01*
X9744786Y23498698D01*
X9744794Y23498694D01*
X9750824Y23494727D01*
X9750790Y23494677D01*
X9757137Y23490634D01*
X9757169Y23490684D01*
X9763318Y23486892D01*
X9763320Y23486891D01*
X9763323Y23486889D01*
X9832930Y23454431D01*
X9901567Y23419960D01*
X9901576Y23419958D01*
X9908355Y23417490D01*
X9908334Y23417433D01*
X9915451Y23414960D01*
X9915470Y23415016D01*
X9922330Y23412743D01*
X9997532Y23397216D01*
X10072279Y23379500D01*
X10072288Y23379500D01*
X10079452Y23378662D01*
X10079445Y23378603D01*
X10086946Y23377837D01*
X10086952Y23377896D01*
X10094140Y23377267D01*
X10094143Y23377268D01*
X10094144Y23377267D01*
X10170898Y23379500D01*
X19254952Y23379500D01*
X19321991Y23359815D01*
X19342628Y23343186D01*
X19406314Y23279500D01*
X19415862Y23269952D01*
X19483576Y23222539D01*
X19602266Y23139432D01*
X19660275Y23112382D01*
X19712714Y23066209D01*
X19731866Y22999016D01*
X19711650Y22932135D01*
X19660275Y22887618D01*
X19602267Y22860569D01*
X19602265Y22860568D01*
X19415858Y22730046D01*
X19254954Y22569142D01*
X19182111Y22465110D01*
X19131883Y22393376D01*
X19077309Y22349752D01*
X19030310Y22340500D01*
X10143705Y22340500D01*
X10125735Y22341809D01*
X10101972Y22345290D01*
X10056890Y22341345D01*
X10049933Y22340736D01*
X10044532Y22340500D01*
X10036287Y22340500D01*
X10010222Y22337454D01*
X10003705Y22336692D01*
X9998403Y22336229D01*
X9927201Y22329999D01*
X9920134Y22328539D01*
X9920122Y22328596D01*
X9912753Y22326962D01*
X9912767Y22326905D01*
X9905739Y22325240D01*
X9850536Y22305148D01*
X9833563Y22298970D01*
X9760666Y22274814D01*
X9760664Y22274814D01*
X9760661Y22274812D01*
X9754122Y22271763D01*
X9754097Y22271815D01*
X9747308Y22268529D01*
X9747334Y22268478D01*
X9740884Y22265239D01*
X9676716Y22223036D01*
X9611347Y22182715D01*
X9605677Y22178231D01*
X9605641Y22178277D01*
X9599798Y22173516D01*
X9599835Y22173472D01*
X9594310Y22168837D01*
X9573735Y22147030D01*
X9541614Y22112983D01*
X9518531Y22089900D01*
X9495448Y22066818D01*
X9434125Y22033333D01*
X9407768Y22030500D01*
X6797129Y22030500D01*
X6797123Y22030499D01*
X6737516Y22024092D01*
X6602671Y21973798D01*
X6602664Y21973794D01*
X6487455Y21887548D01*
X6487452Y21887545D01*
X6401206Y21772336D01*
X6401202Y21772329D01*
X6350908Y21637483D01*
X6344501Y21577884D01*
X6344500Y21577865D01*
X6344500Y19502130D01*
X500500Y19502130D01*
X500500Y35029999D01*
X5044390Y35029999D01*
X5064804Y34744567D01*
X5125628Y34464963D01*
X5125630Y34464957D01*
X5125631Y34464954D01*
X5203804Y34255365D01*
X5225635Y34196834D01*
X5362770Y33945691D01*
X5362775Y33945683D01*
X5534254Y33716613D01*
X5534270Y33716595D01*
X5736594Y33514271D01*
X5736612Y33514255D01*
X5965682Y33342776D01*
X5965690Y33342771D01*
X6216833Y33205636D01*
X6216832Y33205636D01*
X6216836Y33205635D01*
X6216839Y33205633D01*
X6484954Y33105631D01*
X6484960Y33105630D01*
X6484962Y33105629D01*
X6764566Y33044805D01*
X6764568Y33044805D01*
X6764572Y33044804D01*
X7018220Y33026663D01*
X7049999Y33024390D01*
X7050000Y33024390D01*
X7050001Y33024390D01*
X7078595Y33026436D01*
X7335428Y33044804D01*
X7557208Y33093049D01*
X7615037Y33105629D01*
X7615037Y33105630D01*
X7615046Y33105631D01*
X7883161Y33205633D01*
X8134315Y33342774D01*
X8363395Y33514261D01*
X8565739Y33716605D01*
X8737226Y33945685D01*
X8874367Y34196839D01*
X8974369Y34464954D01*
X9035196Y34744572D01*
X9055610Y35030000D01*
X9035196Y35315428D01*
X9031306Y35333308D01*
X8974371Y35595038D01*
X8974370Y35595040D01*
X8974369Y35595046D01*
X8874367Y35863161D01*
X8794025Y36010295D01*
X8737229Y36114310D01*
X8737224Y36114318D01*
X8565745Y36343388D01*
X8565729Y36343406D01*
X8363405Y36545730D01*
X8363387Y36545746D01*
X8134317Y36717225D01*
X8134309Y36717230D01*
X7883166Y36854365D01*
X7883167Y36854365D01*
X7775915Y36894368D01*
X7615046Y36954369D01*
X7615043Y36954370D01*
X7615037Y36954372D01*
X7335433Y37015196D01*
X7050001Y37035610D01*
X7049999Y37035610D01*
X6764566Y37015196D01*
X6484962Y36954372D01*
X6216833Y36854365D01*
X5965690Y36717230D01*
X5965682Y36717225D01*
X5736612Y36545746D01*
X5736594Y36545730D01*
X5534270Y36343406D01*
X5534254Y36343388D01*
X5362775Y36114318D01*
X5362770Y36114310D01*
X5225635Y35863167D01*
X5125628Y35595038D01*
X5064804Y35315434D01*
X5044390Y35030002D01*
X5044390Y35029999D01*
X500500Y35029999D01*
X500500Y40015500D01*
X520185Y40082539D01*
X572989Y40128294D01*
X624500Y40139500D01*
X51445500Y40139500D01*
X51512539Y40119815D01*
G37*
%TD.AperFunction*%
%TD*%
M02*
